AtkinsonHyperlegibleMono-Light.sfdir
StartChar: percent
Encoding: 37 37 332
Width: 632
GlyphClass: 1
Flags: W
LayerCount: 2
Fore
SplineSet
89 400 m 128,-1,1
 55 420 55 420 35 455 c 128,-1,2
 15 490 15 490 15 531 c 256,3,4
 15 572 15 572 35 607 c 128,-1,5
 55 642 55 642 89 662 c 128,-1,6
 123 682 123 682 165 682 c 0,7,8
 206 682 206 682 240.5 662 c 128,-1,9
 275 642 275 642 295 607 c 128,-1,10
 315 572 315 572 315 531 c 256,11,12
 315 490 315 490 295 455 c 128,-1,13
 275 420 275 420 240.5 400 c 128,-1,14
 206 380 206 380 165 380 c 0,15,0
 123 380 123 380 89 400 c 128,-1,1
231.5 462.5 m 128,-1,17
 259 491 259 491 259 531 c 256,18,19
 259 571 259 571 231.5 599 c 128,-1,20
 204 627 204 627 165 627 c 256,21,22
 126 627 126 627 98 599 c 128,-1,23
 70 571 70 571 70 531 c 256,24,25
 70 491 70 491 98 462.5 c 128,-1,26
 126 434 126 434 165 434 c 256,27,16
 204 434 204 434 231.5 462.5 c 128,-1,17
468 668 m 1,28,-1
 530 668 l 1,29,-1
 164 0 l 1,30,-1
 102 0 l 1,31,-1
 468 668 l 1,28,-1
392 6 m 128,-1,33
 358 26 358 26 338 61 c 128,-1,34
 318 96 318 96 318 137 c 256,35,36
 318 178 318 178 338 213 c 128,-1,37
 358 248 358 248 392 268 c 128,-1,38
 426 288 426 288 468 288 c 0,39,40
 509 288 509 288 543.5 268 c 128,-1,41
 578 248 578 248 598 213 c 128,-1,42
 618 178 618 178 618 137 c 256,43,44
 618 96 618 96 598 61 c 128,-1,45
 578 26 578 26 543.5 6 c 128,-1,46
 509 -14 509 -14 468 -14 c 0,47,32
 426 -14 426 -14 392 6 c 128,-1,33
534.5 68.5 m 128,-1,49
 562 97 562 97 562 137 c 256,50,51
 562 177 562 177 534.5 205 c 128,-1,52
 507 233 507 233 468 233 c 256,53,54
 429 233 429 233 401 205 c 128,-1,55
 373 177 373 177 373 137 c 256,56,57
 373 97 373 97 401 68.5 c 128,-1,58
 429 40 429 40 468 40 c 256,59,48
 507 40 507 40 534.5 68.5 c 128,-1,49
EndSplineSet
EndChar
StartChar: parenright
Encoding: 41 41 269
Width: 632
GlyphClass: 1
Flags: W
LayerCount: 2
Fore
SplineSet
317.5 46.5 m 128,-1,1
 377 159 377 159 377 273 c 256,2,3
 377 387 377 387 317.5 499.5 c 128,-1,4
 258 612 258 612 147 708 c 1,5,-1
 235 708 l 1,6,7
 337 617 337 617 392 503.5 c 128,-1,8
 447 390 447 390 447 273 c 256,9,10
 447 156 447 156 392 42.5 c 128,-1,11
 337 -71 337 -71 235 -162 c 1,12,-1
 147 -162 l 1,13,0
 258 -66 258 -66 317.5 46.5 c 128,-1,1
EndSplineSet
EndChar
StartChar: asterisk
Encoding: 42 42 260
Width: 632
GlyphClass: 1
Flags: W
LayerCount: 2
Fore
SplineSet
193 361 m 1,0,-1
 277 477 l 1,1,-1
 139 518 l 1,2,-1
 155 567 l 1,3,-1
 292 523 l 1,4,-1
 292 667 l 1,5,-1
 341 667 l 1,6,-1
 341 523 l 1,7,-1
 478 567 l 1,8,-1
 494 518 l 1,9,-1
 356 477 l 1,10,-1
 442 361 l 1,11,-1
 402 331 l 1,12,-1
 316 445 l 1,13,-1
 234 331 l 1,14,-1
 193 361 l 1,0,-1
EndSplineSet
EndChar
StartChar: plus
Encoding: 43 43 311
Width: 632
GlyphClass: 1
Flags: W
LayerCount: 2
Fore
SplineSet
285 217 m 1,0,-1
 67 217 l 1,1,-1
 67 279 l 1,2,-1
 285 279 l 1,3,-1
 285 496 l 1,4,-1
 347 496 l 1,5,-1
 347 279 l 1,6,-1
 565 279 l 1,7,-1
 565 217 l 1,8,-1
 347 217 l 1,9,-1
 347 0 l 1,10,-1
 285 0 l 1,11,-1
 285 217 l 1,0,-1
EndSplineSet
EndChar
StartChar: hyphen
Encoding: 45 45 264
Width: 632
GlyphClass: 1
Flags: W
LayerCount: 2
Fore
SplineSet
175 282 m 1,0,-1
 457 282 l 1,1,-1
 457 215 l 1,2,-1
 175 215 l 1,3,-1
 175 282 l 1,0,-1
EndSplineSet
EndChar
StartChar: slash
Encoding: 47 47 262
Width: 632
GlyphClass: 5
Flags: W
LayerCount: 2
Fore
SplineSet
506 708 m 1,0,-1
 575 708 l 1,1,-1
 126 -90 l 1,2,-1
 57 -90 l 1,3,-1
 506 708 l 1,0,-1
EndSplineSet
EndChar
StartChar: two
Encoding: 50 50 231
Width: 632
GlyphClass: 5
Flags: W
LayerCount: 2
Fore
SplineSet
307 237 m 128,-1,1
 386 310 386 310 423.5 371.5 c 128,-1,2
 461 433 461 433 461 495 c 0,3,4
 461 551 461 551 423.5 586.5 c 128,-1,5
 386 622 386 622 325 622 c 0,6,7
 270 622 270 622 229.5 591.5 c 128,-1,8
 189 561 189 561 176 500 c 1,9,-1
 108 522 l 1,10,11
 126 595 126 595 183.5 637.5 c 128,-1,12
 241 680 241 680 327 680 c 0,13,14
 418 680 418 680 475 631.5 c 128,-1,15
 532 583 532 583 532 496 c 0,16,17
 532 384 532 384 438 277 c 128,-1,18
 344 170 344 170 188 63 c 1,19,-1
 555 63 l 1,20,-1
 555 0 l 1,21,-1
 92 0 l 1,22,-1
 92 61 l 1,23,0
 228 164 228 164 307 237 c 128,-1,1
EndSplineSet
Substitution2: "'sups' Superscript in Latin lookup 6 subtable" uni00B2
AlternateSubs2: "'aalt' Access All Alternates in Latin lookup 0 subtable" uni00B2
EndChar
StartChar: three
Encoding: 51 51 232
Width: 632
GlyphClass: 5
Flags: W
LayerCount: 2
Fore
SplineSet
164 35 m 128,-1,1
 108 82 108 82 94 154 c 1,2,-1
 161 171 l 1,3,4
 172 114 172 114 212 80 c 128,-1,5
 252 46 252 46 321 46 c 0,6,7
 392 46 392 46 438 84 c 128,-1,8
 484 122 484 122 484 184 c 0,9,10
 484 254 484 254 433.5 290 c 128,-1,11
 383 326 383 326 304 326 c 2,12,-1
 279 326 l 1,13,-1
 279 382 l 1,14,-1
 304 382 l 2,15,16
 367 382 367 382 414 412.5 c 128,-1,17
 461 443 461 443 461 510 c 0,18,19
 461 562 461 562 421.5 592 c 128,-1,20
 382 622 382 622 326 622 c 0,21,22
 263 622 263 622 221.5 588 c 128,-1,23
 180 554 180 554 170 502 c 1,24,-1
 105 521 l 1,25,26
 124 590 124 590 181 635 c 128,-1,27
 238 680 238 680 327 680 c 0,28,29
 382 680 382 680 428.5 660.5 c 128,-1,30
 475 641 475 641 502.5 603 c 128,-1,31
 530 565 530 565 530 512 c 0,32,33
 530 454 530 454 500 412.5 c 128,-1,34
 470 371 470 371 410 356 c 1,35,36
 480 343 480 343 517 296 c 128,-1,37
 554 249 554 249 554 186 c 256,38,39
 554 123 554 123 522 78 c 128,-1,40
 490 33 490 33 436.5 10.5 c 128,-1,41
 383 -12 383 -12 320 -12 c 0,42,0
 220 -12 220 -12 164 35 c 128,-1,1
EndSplineSet
Substitution2: "'sups' Superscript in Latin lookup 6 subtable" uni00B3
AlternateSubs2: "'aalt' Access All Alternates in Latin lookup 0 subtable" uni00B3
EndChar
StartChar: five
Encoding: 53 53 234
Width: 632
GlyphClass: 1
Flags: W
LayerCount: 2
Fore
SplineSet
167.5 34.5 m 128,-1,1
 114 81 114 81 97 154 c 1,2,-1
 162 172 l 1,3,4
 175 111 175 111 212.5 78.5 c 128,-1,5
 250 46 250 46 320 46 c 0,6,7
 363 46 363 46 399 66.5 c 128,-1,8
 435 87 435 87 457 126.5 c 128,-1,9
 479 166 479 166 479 219 c 0,10,11
 479 276 479 276 456.5 315 c 128,-1,12
 434 354 434 354 398 372.5 c 128,-1,13
 362 391 362 391 322 391 c 0,14,15
 277 391 277 391 240 370 c 128,-1,16
 203 349 203 349 181 312 c 1,17,-1
 117 331 l 1,18,-1
 158 668 l 1,19,-1
 521 668 l 1,20,-1
 521 605 l 1,21,-1
 215 605 l 1,22,-1
 188 387 l 1,23,24
 242 449 242 449 334 449 c 0,25,26
 393 449 393 449 442 421.5 c 128,-1,27
 491 394 491 394 520 341.5 c 128,-1,28
 549 289 549 289 549 219 c 0,29,30
 549 146 549 146 517 93.5 c 128,-1,31
 485 41 485 41 432.5 14.5 c 128,-1,32
 380 -12 380 -12 319 -12 c 0,33,0
 221 -12 221 -12 167.5 34.5 c 128,-1,1
EndSplineSet
EndChar
StartChar: equal
Encoding: 61 61 315
Width: 632
GlyphClass: 1
Flags: W
LayerCount: 2
Fore
SplineSet
67 372 m 1,0,-1
 565 372 l 1,1,-1
 565 310 l 1,2,-1
 67 310 l 1,3,-1
 67 372 l 1,0,-1
67 191 m 1,4,-1
 565 191 l 1,5,-1
 565 129 l 1,6,-1
 67 129 l 1,7,-1
 67 191 l 1,4,-1
EndSplineSet
EndChar
StartChar: greater
Encoding: 62 62 317
Width: 632
GlyphClass: 1
Flags: W
LayerCount: 2
Fore
SplineSet
83 78 m 1,0,-1
 463 247 l 1,1,-1
 83 417 l 1,2,-1
 83 490 l 1,3,-1
 549 276 l 1,4,-1
 549 220 l 1,5,-1
 83 6 l 1,6,-1
 83 78 l 1,0,-1
EndSplineSet
EndChar
StartChar: question
Encoding: 63 63 256
Width: 632
GlyphClass: 1
Flags: W
LayerCount: 2
Fore
SplineSet
281.5 301 m 128,-1,1
 302 335 302 335 361 376 c 0,2,3
 408 408 408 408 432 441.5 c 128,-1,4
 456 475 456 475 456 515 c 0,5,6
 456 564 456 564 420 592.5 c 128,-1,7
 384 621 384 621 327 621 c 0,8,9
 264 621 264 621 229 586 c 128,-1,10
 194 551 194 551 187 505 c 1,11,-1
 121 520 l 1,12,13
 132 592 132 592 189.5 636 c 128,-1,14
 247 680 247 680 329 680 c 0,15,16
 379 680 379 680 424.5 661 c 128,-1,17
 470 642 470 642 498 604.5 c 128,-1,18
 526 567 526 567 526 515 c 0,19,20
 526 458 526 458 496.5 417.5 c 128,-1,21
 467 377 467 377 398 323 c 0,22,23
 366 299 366 299 352.5 284 c 128,-1,24
 339 269 339 269 334.5 254 c 128,-1,25
 330 239 330 239 330 213 c 2,26,-1
 330 173 l 1,27,-1
 261 173 l 1,28,-1
 261 209 l 2,29,0
 261 267 261 267 281.5 301 c 128,-1,1
257.5 4.5 m 128,-1,31
 241 21 241 21 241 43 c 256,32,33
 241 65 241 65 257 81 c 128,-1,34
 273 97 273 97 296 97 c 256,35,36
 319 97 319 97 335 81 c 128,-1,37
 351 65 351 65 351 43 c 256,38,39
 351 21 351 21 335 4.5 c 128,-1,40
 319 -12 319 -12 296 -12 c 0,41,30
 274 -12 274 -12 257.5 4.5 c 128,-1,31
EndSplineSet
EndChar
StartChar: A
Encoding: 65 65 2
Width: 632
GlyphClass: 2
Flags: W
AnchorPoint: "Anchor-2" 598 10 basechar 0
AnchorPoint: "Anchor-1" 316 668 basechar 0
AnchorPoint: "Anchor-0" 316 0 basechar 0
LayerCount: 2
Fore
SplineSet
279 668 m 1,0,-1
 354 668 l 1,1,-1
 598 0 l 1,2,-1
 527 0 l 1,3,-1
 470 161 l 1,4,-1
 161 161 l 1,5,-1
 103 0 l 1,6,-1
 34 0 l 1,7,-1
 279 668 l 1,0,-1
450 221 m 1,8,-1
 317 593 l 1,9,-1
 313 593 l 1,10,-1
 180 221 l 1,11,-1
 450 221 l 1,8,-1
EndSplineSet
Substitution2: "Single Substitution lookup 14 subtable" ordfeminine
AlternateSubs2: "'aalt' Access All Alternates in Latin lookup 0 subtable" ordfeminine
EndChar
StartChar: D
Encoding: 68 68 19
Width: 632
GlyphClass: 2
Flags: W
AnchorPoint: "Anchor-1" 325 668 basechar 0
AnchorPoint: "Anchor-0" 319 0 basechar 0
LayerCount: 2
Fore
SplineSet
75 668 m 1,0,-1
 243 668 l 2,1,2
 407 668 407 668 499.5 589.5 c 128,-1,3
 592 511 592 511 592 336 c 0,4,5
 592 160 592 160 499 80 c 128,-1,6
 406 0 406 0 243 0 c 2,7,-1
 75 0 l 1,8,-1
 75 668 l 1,0,-1
443 118.5 m 128,-1,10
 521 177 521 177 521 336 c 0,11,12
 521 494 521 494 443.5 551 c 128,-1,13
 366 608 366 608 236 608 c 2,14,-1
 144 608 l 1,15,-1
 144 60 l 1,16,-1
 236 60 l 2,17,9
 365 60 365 60 443 118.5 c 128,-1,10
EndSplineSet
EndChar
StartChar: E
Encoding: 69 69 23
Width: 632
GlyphClass: 2
Flags: W
AnchorPoint: "Anchor-2" 541 10 basechar 0
AnchorPoint: "Anchor-1" 336 668 basechar 0
AnchorPoint: "Anchor-0" 316 0 basechar 0
LayerCount: 2
Fore
SplineSet
130 668 m 1,0,-1
 537 668 l 1,1,-1
 537 606 l 1,2,-1
 202 606 l 1,3,-1
 202 375 l 1,4,-1
 465 375 l 1,5,-1
 465 313 l 1,6,-1
 202 313 l 1,7,-1
 202 62 l 1,8,-1
 541 62 l 1,9,-1
 541 0 l 1,10,-1
 130 0 l 1,11,-1
 130 668 l 1,0,-1
EndSplineSet
EndChar
StartChar: I
Encoding: 73 73 39
Width: 632
GlyphClass: 2
Flags: W
AnchorPoint: "Anchor-2" 494 10 basechar 0
AnchorPoint: "Anchor-1" 316 668 basechar 0
AnchorPoint: "Anchor-0" 316 0 basechar 0
LayerCount: 2
Fore
SplineSet
138 53 m 1,0,-1
 280 53 l 1,1,-1
 280 615 l 1,2,-1
 138 615 l 1,3,-1
 138 668 l 1,4,-1
 494 668 l 1,5,-1
 494 615 l 1,6,-1
 352 615 l 1,7,-1
 352 53 l 1,8,-1
 494 53 l 1,9,-1
 494 0 l 1,10,-1
 138 0 l 1,11,-1
 138 53 l 1,0,-1
EndSplineSet
EndChar
StartChar: J
Encoding: 74 74 48
Width: 632
GlyphClass: 2
Flags: W
AnchorPoint: "Anchor-1" 474 668 basechar 0
AnchorPoint: "Anchor-0" 320 0 basechar 0
LayerCount: 2
Fore
SplineSet
123 40 m 128,-1,1
 63 92 63 92 63 193 c 1,2,-1
 131 210 l 1,3,4
 127 127 127 127 172.5 87.5 c 128,-1,5
 218 48 218 48 288 48 c 0,6,7
 350 48 350 48 394 80 c 128,-1,8
 438 112 438 112 438 195 c 2,9,-1
 438 668 l 1,10,-1
 509 668 l 1,11,-1
 509 194 l 2,12,13
 509 94 509 94 449.5 41 c 128,-1,14
 390 -12 390 -12 288 -12 c 0,15,0
 183 -12 183 -12 123 40 c 128,-1,1
EndSplineSet
Substitution2: "Single Substitution lookup 13 subtable" uni004A0301
AlternateSubs2: "'aalt' Access All Alternates in Latin lookup 0 subtable" uni004A0301
EndChar
StartChar: K
Encoding: 75 75 50
Width: 632
GlyphClass: 2
Flags: W
AnchorPoint: "Anchor-1" 309 668 basechar 0
AnchorPoint: "Anchor-0" 307 0 basechar 0
LayerCount: 2
Fore
SplineSet
92 668 m 1,0,-1
 162 668 l 1,1,-1
 162 305 l 1,2,-1
 484 668 l 1,3,-1
 569 668 l 1,4,-1
 318 390 l 1,5,-1
 602 0 l 1,6,-1
 518 0 l 1,7,-1
 273 338 l 1,8,-1
 162 216 l 1,9,-1
 162 0 l 1,10,-1
 92 0 l 1,11,-1
 92 668 l 1,0,-1
EndSplineSet
EndChar
StartChar: N
Encoding: 78 78 57
Width: 632
GlyphClass: 2
Flags: W
AnchorPoint: "Anchor-1" 316 668 basechar 0
AnchorPoint: "Anchor-0" 301 0 basechar 0
LayerCount: 2
Fore
SplineSet
80 668 m 1,0,-1
 182 668 l 1,1,-1
 480 83 l 1,2,-1
 484 83 l 1,3,-1
 484 668 l 1,4,-1
 552 668 l 1,5,-1
 552 0 l 1,6,-1
 450 0 l 1,7,-1
 152 585 l 1,8,-1
 148 585 l 1,9,-1
 148 0 l 1,10,-1
 80 0 l 1,11,-1
 80 668 l 1,0,-1
EndSplineSet
EndChar
StartChar: O
Encoding: 79 79 62
Width: 632
GlyphClass: 2
Flags: W
AnchorPoint: "Anchor-3" 631 668 basechar 0
AnchorPoint: "Anchor-2" 582 10 basechar 0
AnchorPoint: "Anchor-1" 317 668 basechar 0
AnchorPoint: "Anchor-0" 317 0 basechar 0
LayerCount: 2
Fore
SplineSet
168.5 32 m 128,-1,1
 106 76 106 76 73 154.5 c 128,-1,2
 40 233 40 233 40 334 c 256,3,4
 40 435 40 435 73 513.5 c 128,-1,5
 106 592 106 592 168.5 636 c 128,-1,6
 231 680 231 680 316 680 c 256,7,8
 401 680 401 680 463.5 636 c 128,-1,9
 526 592 526 592 559 513.5 c 128,-1,10
 592 435 592 435 592 334 c 256,11,12
 592 233 592 233 559 154.5 c 128,-1,13
 526 76 526 76 463.5 32 c 128,-1,14
 401 -12 401 -12 316 -12 c 256,15,0
 231 -12 231 -12 168.5 32 c 128,-1,1
421.5 81 m 128,-1,17
 468 114 468 114 494 178.5 c 128,-1,18
 520 243 520 243 520 334 c 256,19,20
 520 425 520 425 494 489.5 c 128,-1,21
 468 554 468 554 421.5 587 c 128,-1,22
 375 620 375 620 316 620 c 256,23,24
 257 620 257 620 210.5 587 c 128,-1,25
 164 554 164 554 138 489.5 c 128,-1,26
 112 425 112 425 112 334 c 256,27,28
 112 243 112 243 138 178.5 c 128,-1,29
 164 114 164 114 210.5 81 c 128,-1,30
 257 48 257 48 316 48 c 256,31,16
 375 48 375 48 421.5 81 c 128,-1,17
EndSplineSet
Substitution2: "Single Substitution lookup 14 subtable" ordmasculine
AlternateSubs2: "'aalt' Access All Alternates in Latin lookup 0 subtable" ordmasculine
EndChar
StartChar: Q
Encoding: 81 81 73
Width: 632
GlyphClass: 1
Flags: W
LayerCount: 2
Fore
SplineSet
168.5 32 m 128,-1,1
 106 76 106 76 73 154.5 c 128,-1,2
 40 233 40 233 40 334 c 256,3,4
 40 435 40 435 73 513.5 c 128,-1,5
 106 592 106 592 168.5 636 c 128,-1,6
 231 680 231 680 316 680 c 256,7,8
 401 680 401 680 463.5 636 c 128,-1,9
 526 592 526 592 559 513.5 c 128,-1,10
 592 435 592 435 592 334 c 0,11,12
 592 208 592 208 541 118 c 1,13,-1
 632 32 l 1,14,-1
 589 -12 l 1,15,-1
 504 68 l 1,16,17
 469 29 469 29 421.5 8.5 c 128,-1,18
 374 -12 374 -12 316 -12 c 0,19,0
 231 -12 231 -12 168.5 32 c 128,-1,1
455 113 m 1,21,-1
 292 267 l 1,22,-1
 335 313 l 1,23,-1
 487 169 l 1,24,25
 520 237 520 237 520 334 c 0,26,27
 520 425 520 425 494 489.5 c 128,-1,28
 468 554 468 554 421.5 587 c 128,-1,29
 375 620 375 620 316 620 c 256,30,31
 257 620 257 620 210.5 587 c 128,-1,32
 164 554 164 554 138 489.5 c 128,-1,33
 112 425 112 425 112 334 c 256,34,35
 112 243 112 243 138 178.5 c 128,-1,36
 164 114 164 114 210.5 81 c 128,-1,37
 257 48 257 48 316 48 c 0,38,20
 401 48 401 48 455 113 c 1,21,-1
EndSplineSet
EndChar
StartChar: R
Encoding: 82 82 74
Width: 632
GlyphClass: 2
Flags: W
AnchorPoint: "Anchor-1" 293 668 basechar 0
AnchorPoint: "Anchor-0" 312 0 basechar 0
LayerCount: 2
Fore
SplineSet
109 668 m 1,0,-1
 321 668 l 2,1,2
 428 668 428 668 490.5 620 c 128,-1,3
 553 572 553 572 553 476 c 0,4,5
 553 392 553 392 502 345.5 c 128,-1,6
 451 299 451 299 362 290 c 1,7,-1
 567 0 l 1,8,-1
 481 0 l 1,9,-1
 285 285 l 1,10,-1
 178 285 l 1,11,-1
 178 0 l 1,12,-1
 109 0 l 1,13,-1
 109 668 l 1,0,-1
437.5 376.5 m 128,-1,15
 482 409 482 409 482 476 c 0,16,17
 482 544 482 544 437.5 576 c 128,-1,18
 393 608 393 608 319 608 c 2,19,-1
 178 608 l 1,20,-1
 178 344 l 1,21,-1
 319 344 l 2,22,14
 393 344 393 344 437.5 376.5 c 128,-1,15
EndSplineSet
EndChar
StartChar: V
Encoding: 86 86 96
Width: 632
GlyphClass: 2
Flags: W
AnchorPoint: "Anchor-1" 317 668 basechar 0
AnchorPoint: "Anchor-0" 317 0 basechar 0
LayerCount: 2
Fore
SplineSet
47 668 m 1,0,-1
 119 668 l 1,1,-1
 315 82 l 1,2,-1
 319 82 l 1,3,-1
 515 668 l 1,4,-1
 585 668 l 1,5,-1
 353 0 l 1,6,-1
 278 0 l 1,7,-1
 47 668 l 1,0,-1
EndSplineSet
EndChar
StartChar: Z
Encoding: 90 90 108
Width: 632
GlyphClass: 2
Flags: W
AnchorPoint: "Anchor-1" 320 668 basechar 0
AnchorPoint: "Anchor-0" 316 0 basechar 0
LayerCount: 2
Fore
SplineSet
53 69 m 1,0,-1
 481 604 l 1,1,-1
 68 604 l 1,2,-1
 68 668 l 1,3,-1
 563 668 l 1,4,-1
 563 599 l 1,5,-1
 136 64 l 1,6,-1
 578 64 l 1,7,-1
 578 0 l 1,8,-1
 53 0 l 1,9,-1
 53 69 l 1,0,-1
EndSplineSet
EndChar
StartChar: b
Encoding: 98 98 123
Width: 632
GlyphClass: 2
Flags: W
AnchorPoint: "Anchor-1" 306 496 basechar 0
AnchorPoint: "Anchor-0" 306 0 basechar 0
LayerCount: 2
Fore
SplineSet
236.5 14.5 m 128,-1,1
 189 41 189 41 163 82 c 1,2,-1
 149 0 l 1,3,-1
 95 0 l 1,4,-1
 95 708 l 1,5,-1
 164 708 l 1,6,-1
 164 408 l 1,7,8
 190 453 190 453 237.5 480 c 128,-1,9
 285 507 285 507 344 507 c 0,10,11
 413 507 413 507 465.5 476 c 128,-1,12
 518 445 518 445 547 387 c 128,-1,13
 576 329 576 329 576 248 c 256,14,15
 576 167 576 167 547 108.5 c 128,-1,16
 518 50 518 50 465.5 19 c 128,-1,17
 413 -12 413 -12 344 -12 c 0,18,0
 284 -12 284 -12 236.5 14.5 c 128,-1,1
458 100 m 128,-1,20
 505 153 505 153 505 248 c 256,21,22
 505 343 505 343 458 395.5 c 128,-1,23
 411 448 411 448 332 448 c 0,24,25
 255 448 255 448 209 394 c 128,-1,26
 163 340 163 340 163 247 c 256,27,28
 163 154 163 154 209 100.5 c 128,-1,29
 255 47 255 47 332 47 c 0,30,19
 411 47 411 47 458 100 c 128,-1,20
EndSplineSet
EndChar
StartChar: c
Encoding: 99 99 124
Width: 632
GlyphClass: 2
Flags: W
AnchorPoint: "Anchor-1" 347 496 basechar 0
AnchorPoint: "Anchor-0" 344 0 basechar 0
LayerCount: 2
Fore
SplineSet
214 21 m 128,-1,1
 158 54 158 54 127.5 112.5 c 128,-1,2
 97 171 97 171 97 244 c 0,3,4
 97 318 97 318 127 377.5 c 128,-1,5
 157 437 157 437 214 472 c 128,-1,6
 271 507 271 507 348 507 c 0,7,8
 416 507 416 507 467 477 c 128,-1,9
 518 447 518 447 547 395 c 1,10,-1
 486 372 l 1,11,12
 467 408 467 408 431 428 c 128,-1,13
 395 448 395 448 347 448 c 0,14,15
 298 448 298 448 257.5 426 c 128,-1,16
 217 404 217 404 192 358.5 c 128,-1,17
 167 313 167 313 167 246 c 0,18,19
 167 180 167 180 191.5 135.5 c 128,-1,20
 216 91 216 91 256 69 c 128,-1,21
 296 47 296 47 344 47 c 0,22,23
 393 47 393 47 432 66.5 c 128,-1,24
 471 86 471 86 489 119 c 1,25,-1
 551 96 l 1,26,27
 525 51 525 51 471 19.5 c 128,-1,28
 417 -12 417 -12 343 -12 c 0,29,0
 270 -12 270 -12 214 21 c 128,-1,1
EndSplineSet
EndChar
StartChar: g
Encoding: 103 103 143
Width: 632
GlyphClass: 2
Flags: W
AnchorPoint: "Anchor-1" 309 496 basechar 0
AnchorPoint: "Anchor-0" 316 -251 basechar 0
LayerCount: 2
Fore
SplineSet
180.5 -160.5 m 128,-1,1
 122 -132 122 -132 105 -75 c 1,2,-1
 171 -54 l 1,3,4
 181 -90 181 -90 219 -109.5 c 128,-1,5
 257 -129 257 -129 314 -129 c 0,6,7
 383 -129 383 -129 425.5 -96.5 c 128,-1,8
 468 -64 468 -64 468 1 c 2,9,-1
 468 97 l 1,10,11
 439 55 439 55 394.5 30.5 c 128,-1,12
 350 6 350 6 290 6 c 0,13,14
 224 6 224 6 172.5 36 c 128,-1,15
 121 66 121 66 91.5 122 c 128,-1,16
 62 178 62 178 62 255 c 0,17,18
 62 333 62 333 91.5 390 c 128,-1,19
 121 447 121 447 172.5 477 c 128,-1,20
 224 507 224 507 289 507 c 0,21,22
 349 507 349 507 395 480.5 c 128,-1,23
 441 454 441 454 468 410 c 1,24,-1
 483 496 l 1,25,-1
 537 496 l 1,26,-1
 537 2 l 2,27,28
 537 -88 537 -88 475.5 -138.5 c 128,-1,29
 414 -189 414 -189 312 -189 c 0,30,0
 239 -189 239 -189 180.5 -160.5 c 128,-1,1
424 116 m 128,-1,32
 469 167 469 167 469 255 c 256,33,34
 469 343 469 343 423.5 395.5 c 128,-1,35
 378 448 378 448 303 448 c 0,36,37
 226 448 226 448 179.5 397 c 128,-1,38
 133 346 133 346 133 255 c 0,39,40
 133 165 133 165 179.5 115 c 128,-1,41
 226 65 226 65 303 65 c 0,42,31
 379 65 379 65 424 116 c 128,-1,32
EndSplineSet
EndChar
StartChar: o
Encoding: 111 111 173
Width: 632
GlyphClass: 2
Flags: W
AnchorPoint: "Anchor-3" 591 496 basechar 0
AnchorPoint: "Anchor-2" 554 10 basechar 0
AnchorPoint: "Anchor-1" 316 496 basechar 0
AnchorPoint: "Anchor-0" 316 0 basechar 0
LayerCount: 2
Fore
SplineSet
196 16.5 m 128,-1,1
 139 45 139 45 103 103.5 c 128,-1,2
 67 162 67 162 67 248 c 0,3,4
 67 333 67 333 103 391.5 c 128,-1,5
 139 450 139 450 196 478.5 c 128,-1,6
 253 507 253 507 316 507 c 256,7,8
 379 507 379 507 436 478.5 c 128,-1,9
 493 450 493 450 529 391.5 c 128,-1,10
 565 333 565 333 565 248 c 0,11,12
 565 162 565 162 529 103.5 c 128,-1,13
 493 45 493 45 436 16.5 c 128,-1,14
 379 -12 379 -12 316 -12 c 256,15,0
 253 -12 253 -12 196 16.5 c 128,-1,1
404.5 69 m 128,-1,17
 445 91 445 91 469.5 136.5 c 128,-1,18
 494 182 494 182 494 248 c 256,19,20
 494 314 494 314 469.5 359 c 128,-1,21
 445 404 445 404 404.5 426 c 128,-1,22
 364 448 364 448 316 448 c 256,23,24
 268 448 268 448 227.5 426 c 128,-1,25
 187 404 187 404 162.5 359 c 128,-1,26
 138 314 138 314 138 248 c 256,27,28
 138 182 138 182 162.5 136.5 c 128,-1,29
 187 91 187 91 227.5 69 c 128,-1,30
 268 47 268 47 316 47 c 256,31,16
 364 47 364 47 404.5 69 c 128,-1,17
EndSplineSet
Substitution2: "Single Substitution lookup 14 subtable" ordmasculine
AlternateSubs2: "'aalt' Access All Alternates in Latin lookup 0 subtable" ordmasculine
EndChar
StartChar: q
Encoding: 113 113 184
Width: 632
GlyphClass: 2
Flags: W
AnchorPoint: "Anchor-1" 330 496 basechar 0
AnchorPoint: "Anchor-0" 330 0 basechar 0
LayerCount: 2
Fore
SplineSet
492 -145.5 m 128,-1,1
 464 -117 464 -117 464 -49 c 2,2,-1
 464 84 l 1,3,4
 436 40 436 40 390.5 14 c 128,-1,5
 345 -12 345 -12 285 -12 c 0,6,7
 217 -12 217 -12 165.5 19 c 128,-1,8
 114 50 114 50 85 108.5 c 128,-1,9
 56 167 56 167 56 247 c 0,10,11
 56 328 56 328 85 386.5 c 128,-1,12
 114 445 114 445 166 476 c 128,-1,13
 218 507 218 507 286 507 c 0,14,15
 346 507 346 507 392 480.5 c 128,-1,16
 438 454 438 454 464 409 c 1,17,-1
 479 496 l 1,18,-1
 533 496 l 1,19,-1
 533 -41 l 2,20,21
 533 -78 533 -78 545 -95.5 c 128,-1,22
 557 -113 557 -113 584 -113 c 0,23,24
 610 -113 610 -113 632 -99 c 1,25,-1
 632 -159 l 1,26,27
 604 -174 604 -174 570 -174 c 0,28,0
 520 -174 520 -174 492 -145.5 c 128,-1,1
419.5 101 m 128,-1,30
 465 155 465 155 465 247 c 0,31,32
 465 340 465 340 419.5 394 c 128,-1,33
 374 448 374 448 298 448 c 0,34,35
 220 448 220 448 173.5 395 c 128,-1,36
 127 342 127 342 127 247 c 0,37,38
 127 153 127 153 173.5 100 c 128,-1,39
 220 47 220 47 298 47 c 0,40,29
 374 47 374 47 419.5 101 c 128,-1,30
EndSplineSet
EndChar
StartChar: s
Encoding: 115 115 188
Width: 632
GlyphClass: 2
Flags: W
AnchorPoint: "Anchor-1" 315 496 basechar 0
AnchorPoint: "Anchor-0" 325 0 basechar 0
LayerCount: 2
Fore
SplineSet
187.5 19.5 m 128,-1,1
 127 51 127 51 104 112 c 1,2,-1
 169 137 l 1,3,4
 182 93 182 93 223 69 c 128,-1,5
 264 45 264 45 325 45 c 0,6,7
 388 45 388 45 425 69 c 128,-1,8
 462 93 462 93 462 132 c 256,9,10
 462 171 462 171 432.5 190 c 128,-1,11
 403 209 403 209 343 222 c 2,12,-1
 263 239 l 2,13,14
 192 253 192 253 156 283 c 128,-1,15
 120 313 120 313 120 368 c 0,16,17
 120 431 120 431 175 469 c 128,-1,18
 230 507 230 507 315 507 c 0,19,20
 386 507 386 507 437.5 480.5 c 128,-1,21
 489 454 489 454 510 405 c 1,22,-1
 448 381 l 1,23,24
 435 414 435 414 398.5 431.5 c 128,-1,25
 362 449 362 449 313 449 c 0,26,27
 257 449 257 449 221.5 428.5 c 128,-1,28
 186 408 186 408 186 372 c 0,29,30
 186 342 186 342 210.5 324.5 c 128,-1,31
 235 307 235 307 281 297 c 2,32,-1
 363 280 l 2,33,34
 448 262 448 262 488 230.5 c 128,-1,35
 528 199 528 199 528 137 c 0,36,37
 528 68 528 68 470.5 28 c 128,-1,38
 413 -12 413 -12 324 -12 c 0,39,0
 248 -12 248 -12 187.5 19.5 c 128,-1,1
EndSplineSet
EndChar
StartChar: v
Encoding: 118 118 207
Width: 632
GlyphClass: 2
Flags: W
AnchorPoint: "Anchor-1" 317 496 basechar 0
AnchorPoint: "Anchor-0" 317 0 basechar 0
LayerCount: 2
Fore
SplineSet
63 496 m 1,0,-1
 137 496 l 1,1,-1
 316 85 l 1,2,-1
 320 85 l 1,3,-1
 496 496 l 1,4,-1
 569 496 l 1,5,-1
 347 0 l 1,6,-1
 285 0 l 1,7,-1
 63 496 l 1,0,-1
EndSplineSet
EndChar
StartChar: braceleft
Encoding: 123 123 270
Width: 632
GlyphClass: 1
Flags: W
LayerCount: 2
Fore
SplineSet
279 -151.5 m 128,-1,1
 255 -141 255 -141 246.5 -119.5 c 128,-1,2
 238 -98 238 -98 238 -59 c 2,3,-1
 238 152 l 2,4,5
 238 188 238 188 230 207.5 c 128,-1,6
 222 227 222 227 202 235.5 c 128,-1,7
 182 244 182 244 144 246 c 1,8,-1
 144 300 l 1,9,10
 182 302 182 302 202 310.5 c 128,-1,11
 222 319 222 319 230 338.5 c 128,-1,12
 238 358 238 358 238 394 c 2,13,-1
 238 605 l 2,14,15
 238 644 238 644 246.5 665.5 c 128,-1,16
 255 687 255 687 279 697.5 c 128,-1,17
 303 708 303 708 349 708 c 2,18,-1
 474 708 l 1,19,-1
 474 654 l 1,20,-1
 349 654 l 2,21,22
 324 654 324 654 314.5 645 c 128,-1,23
 305 636 305 636 305 614 c 2,24,-1
 305 403 l 2,25,26
 305 344 305 344 288 316 c 128,-1,27
 271 288 271 288 234 276 c 1,28,-1
 234 270 l 1,29,30
 271 259 271 259 288 230.5 c 128,-1,31
 305 202 305 202 305 143 c 2,32,-1
 305 -68 l 2,33,34
 305 -90 305 -90 314.5 -99 c 128,-1,35
 324 -108 324 -108 349 -108 c 2,36,-1
 474 -108 l 1,37,-1
 474 -162 l 1,38,-1
 349 -162 l 2,39,0
 303 -162 303 -162 279 -151.5 c 128,-1,1
EndSplineSet
EndChar
StartChar: exclamdown
Encoding: 161 161 255
Width: 632
GlyphClass: 1
Flags: W
LayerCount: 2
Fore
SplineSet
280 1 m 1,0,-1
 295 317 l 1,1,-1
 336 317 l 1,2,-1
 351 1 l 1,3,-1
 351 -170 l 1,4,-1
 280 -170 l 1,5,-1
 280 1 l 1,0,-1
277.5 416.5 m 128,-1,7
 261 433 261 433 261 455 c 0,8,9
 261 478 261 478 277.5 494 c 128,-1,10
 294 510 294 510 316 510 c 0,11,12
 339 510 339 510 355 494 c 128,-1,13
 371 478 371 478 371 455 c 0,14,15
 371 433 371 433 355 416.5 c 128,-1,16
 339 400 339 400 316 400 c 0,17,6
 294 400 294 400 277.5 416.5 c 128,-1,7
EndSplineSet
EndChar
StartChar: sterling
Encoding: 163 163 307
Width: 632
GlyphClass: 1
Flags: W
LayerCount: 2
Fore
SplineSet
186.5 112 m 128,-1,1
 228 159 228 159 228 219 c 0,2,3
 228 267 228 267 206 325 c 1,4,-1
 96 325 l 1,5,-1
 96 369 l 1,6,-1
 184 369 l 1,7,8
 162 418 162 418 151.5 450 c 128,-1,9
 141 482 141 482 141 513 c 0,10,11
 141 592 141 592 196 636.5 c 128,-1,12
 251 681 251 681 343 681 c 0,13,14
 425 681 425 681 481 643.5 c 128,-1,15
 537 606 537 606 554 543 c 1,16,-1
 482 525 l 1,17,18
 457 621 457 621 346 621 c 0,19,20
 292 621 292 621 251.5 597 c 128,-1,21
 211 573 211 573 211 514 c 0,22,23
 211 484 211 484 221 457.5 c 128,-1,24
 231 431 231 431 258 369 c 1,25,-1
 465 369 l 1,26,-1
 465 325 l 1,27,-1
 278 325 l 1,28,29
 297 274 297 274 297 228 c 0,30,31
 297 175 297 175 276.5 138 c 128,-1,32
 256 101 256 101 216 75 c 1,33,34
 235 84 235 84 261 84 c 0,35,36
 280 84 280 84 298 80 c 128,-1,37
 316 76 316 76 343 67 c 0,38,39
 374 57 374 57 397.5 52 c 128,-1,40
 421 47 421 47 447 47 c 0,41,42
 468 47 468 47 487 52 c 128,-1,43
 506 57 506 57 543 71 c 1,44,-1
 563 16 l 1,45,46
 497 -12 497 -12 448 -12 c 0,47,48
 423 -12 423 -12 400.5 -7 c 128,-1,49
 378 -2 378 -2 349 8 c 0,50,51
 314 18 314 18 294 22.5 c 128,-1,52
 274 27 274 27 249 27 c 0,53,54
 219 27 219 27 189.5 18.5 c 128,-1,55
 160 10 160 10 121 -10 c 1,56,-1
 98 40 l 1,57,0
 145 65 145 65 186.5 112 c 128,-1,1
EndSplineSet
EndChar
StartChar: ordfeminine
Encoding: 170 170 223
Width: 632
GlyphClass: 1
Flags: W
LayerCount: 2
Fore
SplineSet
194.5 359.5 m 128,-1,1
 165 384 165 384 165 429 c 0,2,3
 165 486 165 486 220.5 514 c 128,-1,4
 276 542 276 542 396 550 c 1,5,6
 396 594 396 594 381.5 620.5 c 128,-1,7
 367 647 367 647 315 647 c 0,8,9
 283 647 283 647 259.5 633 c 128,-1,10
 236 619 236 619 229 593 c 1,11,-1
 179 606 l 1,12,13
 191 644 191 644 227.5 668.5 c 128,-1,14
 264 693 264 693 316 693 c 0,15,16
 378 693 378 693 414 658 c 128,-1,17
 450 623 450 623 450 548 c 2,18,-1
 450 450 l 2,19,20
 450 409 450 409 453.5 385.5 c 128,-1,21
 457 362 457 362 465 343 c 1,22,-1
 411 343 l 1,23,-1
 397 393 l 1,24,25
 361 335 361 335 277 335 c 0,26,0
 224 335 224 335 194.5 359.5 c 128,-1,1
366.5 410.5 m 128,-1,28
 395 442 395 442 395 488 c 2,29,-1
 395 508 l 1,30,31
 300 502 300 502 262 484 c 128,-1,32
 224 466 224 466 224 429 c 0,33,34
 224 403 224 403 239.5 391 c 128,-1,35
 255 379 255 379 287 379 c 0,36,27
 338 379 338 379 366.5 410.5 c 128,-1,28
EndSplineSet
EndChar
StartChar: degree
Encoding: 176 176 295
Width: 632
GlyphClass: 1
Flags: W
LayerCount: 2
Fore
SplineSet
252.5 441 m 128,-1,1
 223 458 223 458 205.5 487.5 c 128,-1,2
 188 517 188 517 188 552 c 256,3,4
 188 587 188 587 205.5 616.5 c 128,-1,5
 223 646 223 646 252.5 663.5 c 128,-1,6
 282 681 282 681 316 681 c 0,7,8
 351 681 351 681 380.5 663.5 c 128,-1,9
 410 646 410 646 427 616.5 c 128,-1,10
 444 587 444 587 444 552 c 0,11,12
 444 499 444 499 406.5 461.5 c 128,-1,13
 369 424 369 424 316 424 c 0,14,0
 282 424 282 424 252.5 441 c 128,-1,1
371.5 497 m 128,-1,16
 394 520 394 520 394 552 c 0,17,18
 394 585 394 585 371.5 607.5 c 128,-1,19
 349 630 349 630 316 630 c 0,20,21
 284 630 284 630 261 607.5 c 128,-1,22
 238 585 238 585 238 552 c 0,23,24
 238 520 238 520 261 497 c 128,-1,25
 284 474 284 474 316 474 c 0,26,15
 349 474 349 474 371.5 497 c 128,-1,16
EndSplineSet
EndChar
StartChar: plusminus
Encoding: 177 177 321
Width: 632
GlyphClass: 1
Flags: W
LayerCount: 2
Fore
SplineSet
285 275 m 1,0,-1
 75 275 l 1,1,-1
 75 333 l 1,2,-1
 285 333 l 1,3,-1
 285 496 l 1,4,-1
 347 496 l 1,5,-1
 347 333 l 1,6,-1
 557 333 l 1,7,-1
 557 275 l 1,8,-1
 347 275 l 1,9,-1
 347 112 l 1,10,-1
 285 112 l 1,11,-1
 285 275 l 1,0,-1
75 64 m 1,12,-1
 557 64 l 1,13,-1
 557 0 l 1,14,-1
 75 0 l 1,15,-1
 75 64 l 1,12,-1
EndSplineSet
EndChar
StartChar: uni00B2
Encoding: 178 178 245
Width: 632
GlyphClass: 1
Flags: W
LayerCount: 2
Fore
SplineSet
339.5 566.5 m 128,-1,1
 389 624 389 624 389 675 c 0,2,3
 389 705 389 705 369.5 723 c 128,-1,4
 350 741 350 741 318 741 c 0,5,6
 290 741 290 741 268 724.5 c 128,-1,7
 246 708 246 708 242 671 c 1,8,-1
 184 682 l 1,9,10
 193 730 193 730 229 758 c 128,-1,11
 265 786 265 786 321 786 c 0,12,13
 378 786 378 786 414 756 c 128,-1,14
 450 726 450 726 450 677 c 0,15,16
 450 618 450 618 399.5 555 c 128,-1,17
 349 492 349 492 245 414 c 1,18,-1
 462 414 l 1,19,-1
 462 364 l 1,20,-1
 171 364 l 1,21,-1
 171 411 l 1,22,0
 290 509 290 509 339.5 566.5 c 128,-1,1
EndSplineSet
EndChar
StartChar: paragraph
Encoding: 182 182 290
Width: 632
GlyphClass: 1
Flags: W
LayerCount: 2
Fore
SplineSet
144 356.5 m 128,-1,1
 96 408 96 408 96 479 c 0,2,3
 96 531 96 531 123 574.5 c 128,-1,4
 150 618 150 618 200 643 c 128,-1,5
 250 668 250 668 315 668 c 2,6,-1
 545 668 l 1,7,-1
 545 618 l 1,8,-1
 507 618 l 1,9,-1
 507 -162 l 1,10,-1
 448 -162 l 1,11,-1
 448 618 l 1,12,-1
 336 618 l 1,13,-1
 336 -162 l 1,14,-1
 277 -162 l 1,15,-1
 277 293 l 1,16,0
 192 305 192 305 144 356.5 c 128,-1,1
EndSplineSet
EndChar
StartChar: ordmasculine
Encoding: 186 186 224
Width: 632
GlyphClass: 1
Flags: W
LayerCount: 2
Fore
SplineSet
235.5 355 m 128,-1,1
 199 375 199 375 177 415.5 c 128,-1,2
 155 456 155 456 155 514 c 0,3,4
 155 571 155 571 177.5 611.5 c 128,-1,5
 200 652 200 652 236.5 672.5 c 128,-1,6
 273 693 273 693 315 693 c 0,7,8
 358 693 358 693 395 672.5 c 128,-1,9
 432 652 432 652 454.5 611.5 c 128,-1,10
 477 571 477 571 477 514 c 0,11,12
 477 456 477 456 454.5 415.5 c 128,-1,13
 432 375 432 375 395 355 c 128,-1,14
 358 335 358 335 315 335 c 256,15,0
 272 335 272 335 235.5 355 c 128,-1,1
390 418.5 m 128,-1,17
 418 454 418 454 418 514 c 256,18,19
 418 574 418 574 390 610 c 128,-1,20
 362 646 362 646 315 646 c 0,21,22
 270 646 270 646 242 610 c 128,-1,23
 214 574 214 574 214 514 c 256,24,25
 214 454 214 454 242 418.5 c 128,-1,26
 270 383 270 383 315 383 c 0,27,16
 362 383 362 383 390 418.5 c 128,-1,17
EndSplineSet
EndChar
StartChar: guillemotright
Encoding: 187 187 281
Width: 632
GlyphClass: 1
Flags: W
LayerCount: 2
Fore
SplineSet
451 250 m 1,0,-1
 303 460 l 1,1,-1
 380 460 l 1,2,-1
 528 250 l 1,3,-1
 380 40 l 1,4,-1
 303 40 l 1,5,-1
 451 250 l 1,0,-1
252 250 m 1,6,-1
 103 460 l 1,7,-1
 181 460 l 1,8,-1
 329 250 l 1,9,-1
 181 40 l 1,10,-1
 103 40 l 1,11,-1
 252 250 l 1,6,-1
EndSplineSet
EndChar
StartChar: onequarter
Encoding: 188 188 242
Width: 632
GlyphClass: 3
Flags: W
LayerCount: 2
Fore
SplineSet
152 587 m 1,0,-1
 84 587 l 1,1,-1
 84 627 l 1,2,3
 147 627 147 627 161 668 c 1,4,-1
 209 668 l 1,5,-1
 209 364 l 1,6,-1
 152 364 l 1,7,-1
 152 587 l 1,0,-1
467 668 m 1,8,-1
 529 668 l 1,9,-1
 163 0 l 1,10,-1
 101 0 l 1,11,-1
 467 668 l 1,8,-1
481 64 m 1,12,-1
 325 64 l 1,13,-1
 325 112 l 1,14,-1
 480 305 l 1,15,-1
 536 305 l 1,16,-1
 536 114 l 1,17,-1
 585 114 l 1,18,-1
 585 64 l 1,19,-1
 536 64 l 1,20,-1
 536 0 l 1,21,-1
 481 0 l 1,22,-1
 481 64 l 1,12,-1
481 114 m 1,23,-1
 481 231 l 1,24,-1
 479 231 l 1,25,-1
 386 114 l 1,26,-1
 481 114 l 1,23,-1
EndSplineSet
Ligature2: "'frac' Diagonal Fractions in Latin lookup 7 subtable" one slash four
EndChar
StartChar: Aring
Encoding: 197 197 10
Width: 632
GlyphClass: 2
Flags: W
AnchorPoint: "Anchor-2" 598 10 basechar 0
AnchorPoint: "Anchor-1" 316 839 basechar 0
AnchorPoint: "Anchor-0" 316 0 basechar 0
LayerCount: 2
Fore
SplineSet
231 686 m 128,-1,1
 215 710 215 710 215 739 c 0,2,3
 215 780 215 780 245 809.5 c 128,-1,4
 275 839 275 839 316 839 c 0,5,6
 358 839 358 839 387.5 809.5 c 128,-1,7
 417 780 417 780 417 739 c 0,8,9
 417 710 417 710 401.5 685.5 c 128,-1,10
 386 661 386 661 361 650 c 1,11,-1
 598 0 l 1,12,-1
 527 0 l 1,13,-1
 470 161 l 1,14,-1
 161 161 l 1,15,-1
 103 0 l 1,16,-1
 34 0 l 1,17,-1
 272 650 l 1,18,0
 247 662 247 662 231 686 c 128,-1,1
450 221 m 1,19,-1
 317 593 l 1,20,-1
 313 593 l 1,21,-1
 180 221 l 1,22,-1
 450 221 l 1,19,-1
354 700.5 m 128,-1,24
 370 716 370 716 370 738 c 0,25,26
 370 761 370 761 354.5 776.5 c 128,-1,27
 339 792 339 792 316 792 c 0,28,29
 294 792 294 792 278 776 c 128,-1,30
 262 760 262 760 262 738 c 256,31,32
 262 716 262 716 278 700.5 c 128,-1,33
 294 685 294 685 316 685 c 256,34,23
 338 685 338 685 354 700.5 c 128,-1,24
EndSplineSet
EndChar
StartChar: Ccedilla
Encoding: 199 199 17
Width: 632
GlyphClass: 2
Flags: W
AnchorPoint: "Anchor-1" 337 668 basechar 0
LayerCount: 2
Fore
SplineSet
283 -172 m 128,-1,1
 260 -166 260 -166 243 -156 c 1,2,-1
 258 -127 l 1,3,4
 291 -144 291 -144 322 -144 c 0,5,6
 346 -144 346 -144 358 -132.5 c 128,-1,7
 370 -121 370 -121 370 -108 c 0,8,9
 370 -78 370 -78 329 -78 c 0,10,11
 322 -78 322 -78 308 -81 c 128,-1,12
 294 -84 294 -84 289 -84 c 2,13,-1
 288 -84 l 2,14,15
 273 -84 273 -84 273 -70 c 0,16,17
 273 -64 273 -64 278 -56 c 2,18,-1
 305 -11 l 1,19,20
 230 -3 230 -3 173 43 c 128,-1,21
 116 89 116 89 85 165 c 128,-1,22
 54 241 54 241 54 336 c 0,23,24
 54 435 54 435 90.5 513.5 c 128,-1,25
 127 592 127 592 192 636 c 128,-1,26
 257 680 257 680 340 680 c 0,27,28
 417 680 417 680 480 641 c 128,-1,29
 543 602 543 602 574 530 c 1,30,-1
 514 506 l 1,31,32
 491 557 491 557 446.5 588.5 c 128,-1,33
 402 620 402 620 340 620 c 0,34,35
 282 620 282 620 233 587 c 128,-1,36
 184 554 184 554 154.5 489.5 c 128,-1,37
 125 425 125 425 125 336 c 0,38,39
 125 246 125 246 154.5 180.5 c 128,-1,40
 184 115 184 115 233 81.5 c 128,-1,41
 282 48 282 48 340 48 c 0,42,43
 403 48 403 48 447.5 79 c 128,-1,44
 492 110 492 110 517 161 c 1,45,-1
 577 139 l 1,46,47
 544 67 544 67 484.5 29 c 128,-1,48
 425 -9 425 -9 345 -12 c 1,49,-1
 322 -48 l 1,50,51
 339 -44 339 -44 354 -44 c 0,52,53
 383 -44 383 -44 401.5 -60 c 128,-1,54
 420 -76 420 -76 420 -100 c 0,55,56
 420 -129 420 -129 394.5 -153.5 c 128,-1,57
 369 -178 369 -178 325 -178 c 0,58,0
 306 -178 306 -178 283 -172 c 128,-1,1
EndSplineSet
EndChar
StartChar: Thorn
Encoding: 222 222 72
Width: 632
GlyphClass: 2
Flags: W
AnchorPoint: "Anchor-1" 302 668 basechar 0
AnchorPoint: "Anchor-0" 302 0 basechar 0
LayerCount: 2
Fore
SplineSet
112 668 m 1,0,-1
 181 668 l 1,1,-1
 181 536 l 1,2,-1
 334 536 l 2,3,4
 444 536 444 536 507.5 486.5 c 128,-1,5
 571 437 571 437 571 340 c 256,6,7
 571 243 571 243 507.5 193.5 c 128,-1,8
 444 144 444 144 334 144 c 2,9,-1
 181 144 l 1,10,-1
 181 0 l 1,11,-1
 112 0 l 1,12,-1
 112 668 l 1,0,-1
455.5 236 m 128,-1,14
 500 268 500 268 500 340 c 256,15,16
 500 412 500 412 455.5 444 c 128,-1,17
 411 476 411 476 329 476 c 2,18,-1
 181 476 l 1,19,-1
 181 204 l 1,20,-1
 329 204 l 2,21,13
 411 204 411 204 455.5 236 c 128,-1,14
EndSplineSet
EndChar
StartChar: eth
Encoding: 240 240 132
Width: 632
GlyphClass: 1
Flags: W
LayerCount: 2
Fore
SplineSet
184 15.5 m 128,-1,1
 128 43 128 43 93.5 96.5 c 128,-1,2
 59 150 59 150 59 225 c 0,3,4
 59 299 59 299 93 353 c 128,-1,5
 127 407 127 407 181.5 435 c 128,-1,6
 236 463 236 463 297 463 c 0,7,8
 364 463 364 463 419 431.5 c 128,-1,9
 474 400 474 400 492 347 c 1,10,11
 488 441 488 441 468.5 497 c 128,-1,12
 449 553 449 553 415 588 c 1,13,-1
 354 528 l 1,14,-1
 323 558 l 1,15,-1
 379 614 l 1,16,17
 351 634 351 634 310 648 c 128,-1,18
 269 662 269 662 219 662 c 0,19,20
 203 662 203 662 194 661 c 1,21,-1
 194 718 l 1,22,23
 203 719 203 719 222 719 c 0,24,25
 329 719 329 719 423 659 c 1,26,-1
 467 702 l 1,27,-1
 498 672 l 1,28,-1
 459 632 l 1,29,30
 511 580 511 580 534 504.5 c 128,-1,31
 557 429 557 429 557 324 c 0,32,33
 557 174 557 174 497.5 81 c 128,-1,34
 438 -12 438 -12 303 -12 c 0,35,0
 240 -12 240 -12 184 15.5 c 128,-1,1
390 66.5 m 128,-1,37
 430 87 430 87 454.5 127.5 c 128,-1,38
 479 168 479 168 479 224 c 0,39,40
 479 281 479 281 454.5 322 c 128,-1,41
 430 363 430 363 389.5 384 c 128,-1,42
 349 405 349 405 304 405 c 0,43,44
 258 405 258 405 218.5 384.5 c 128,-1,45
 179 364 179 364 154.5 323 c 128,-1,46
 130 282 130 282 130 225 c 256,47,48
 130 168 130 168 154.5 127.5 c 128,-1,49
 179 87 179 87 219 66.5 c 128,-1,50
 259 46 259 46 305 46 c 0,51,36
 350 46 350 46 390 66.5 c 128,-1,37
EndSplineSet
EndChar
StartChar: divide
Encoding: 247 247 314
Width: 632
GlyphClass: 1
Flags: W
LayerCount: 2
Fore
SplineSet
67 279 m 1,0,-1
 565 279 l 1,1,-1
 565 217 l 1,2,-1
 67 217 l 1,3,-1
 67 279 l 1,0,-1
273.5 39.5 m 128,-1,5
 256 57 256 57 256 82 c 256,6,7
 256 107 256 107 273.5 124.5 c 128,-1,8
 291 142 291 142 316 142 c 256,9,10
 341 142 341 142 358.5 124.5 c 128,-1,11
 376 107 376 107 376 82 c 256,12,13
 376 57 376 57 358.5 39.5 c 128,-1,14
 341 22 341 22 316 22 c 256,15,4
 291 22 291 22 273.5 39.5 c 128,-1,5
273 372 m 128,-1,17
 256 389 256 389 256 414 c 0,18,19
 256 440 256 440 273.5 457.5 c 128,-1,20
 291 475 291 475 316 475 c 256,21,22
 341 475 341 475 358.5 457.5 c 128,-1,23
 376 440 376 440 376 414 c 0,24,25
 376 389 376 389 359 372 c 128,-1,26
 342 355 342 355 316 355 c 256,27,16
 290 355 290 355 273 372 c 128,-1,17
EndSplineSet
EndChar
StartChar: thorn
Encoding: 254 254 183
Width: 632
GlyphClass: 2
Flags: W
AnchorPoint: "Anchor-1" 314 496 basechar 0
AnchorPoint: "Anchor-0" 314 0 basechar 0
LayerCount: 2
Fore
SplineSet
95 708 m 1,0,-1
 164 708 l 1,1,-1
 164 408 l 1,2,3
 190 453 190 453 237.5 480 c 128,-1,4
 285 507 285 507 344 507 c 0,5,6
 413 507 413 507 465.5 476 c 128,-1,7
 518 445 518 445 547 386 c 128,-1,8
 576 327 576 327 576 247 c 0,9,10
 576 166 576 166 547 108 c 128,-1,11
 518 50 518 50 465.5 19 c 128,-1,12
 413 -12 413 -12 344 -12 c 0,13,14
 284 -12 284 -12 237 14.5 c 128,-1,15
 190 41 190 41 164 83 c 1,16,-1
 164 -162 l 1,17,-1
 95 -162 l 1,18,-1
 95 708 l 1,0,-1
458 99.5 m 128,-1,20
 505 152 505 152 505 247 c 256,21,22
 505 342 505 342 458 395 c 128,-1,23
 411 448 411 448 332 448 c 0,24,25
 255 448 255 448 209 394.5 c 128,-1,26
 163 341 163 341 163 248 c 256,27,28
 163 155 163 155 209.5 101 c 128,-1,29
 256 47 256 47 332 47 c 0,30,19
 411 47 411 47 458 99.5 c 128,-1,20
EndSplineSet
EndChar
StartChar: Dcroat
Encoding: 272 272 21
Width: 632
GlyphClass: 1
Flags: W
LayerCount: 2
Fore
SplineSet
75 320 m 1,0,-1
 21 320 l 1,1,-1
 21 380 l 1,2,-1
 75 380 l 1,3,-1
 75 668 l 1,4,-1
 243 668 l 2,5,6
 407 668 407 668 499.5 589.5 c 128,-1,7
 592 511 592 511 592 336 c 0,8,9
 592 160 592 160 499 80 c 128,-1,10
 406 0 406 0 243 0 c 2,11,-1
 75 0 l 1,12,-1
 75 320 l 1,0,-1
443 118.5 m 128,-1,14
 521 177 521 177 521 336 c 0,15,16
 521 494 521 494 443.5 551 c 128,-1,17
 366 608 366 608 236 608 c 2,18,-1
 144 608 l 1,19,-1
 144 380 l 1,20,-1
 332 380 l 1,21,-1
 332 320 l 1,22,-1
 144 320 l 1,23,-1
 144 60 l 1,24,-1
 236 60 l 2,25,13
 365 60 365 60 443 118.5 c 128,-1,14
EndSplineSet
EndChar
StartChar: eogonek
Encoding: 281 281 141
Width: 632
GlyphClass: 2
Flags: W
AnchorPoint: "Anchor-1" 261 496 basechar 0
LayerCount: 2
Fore
SplineSet
359.5 -148 m 128,-1,1
 335 -127 335 -127 335 -92 c 0,2,3
 335 -69 335 -69 344.5 -47 c 128,-1,4
 354 -25 354 -25 371 -8 c 1,5,6
 347 -11 347 -11 324 -11 c 0,7,8
 253 -11 253 -11 197.5 20 c 128,-1,9
 142 51 142 51 111 109.5 c 128,-1,10
 80 168 80 168 80 246 c 256,11,12
 80 324 80 324 111 383.5 c 128,-1,13
 142 443 142 443 197 475 c 128,-1,14
 252 507 252 507 322 507 c 0,15,16
 397 507 397 507 451 469 c 128,-1,17
 505 431 505 431 531 369.5 c 128,-1,18
 557 308 557 308 552 239 c 1,19,-1
 150 239 l 1,20,21
 151 138 151 138 204.5 92.5 c 128,-1,22
 258 47 258 47 329 47 c 0,23,24
 416 47 416 47 460 107 c 1,25,-1
 524 84 l 1,26,27
 495 43 495 43 447 13 c 0,28,29
 420 -4 420 -4 406 -27 c 128,-1,30
 392 -50 392 -50 392 -75 c 0,31,32
 392 -98 392 -98 407.5 -110.5 c 128,-1,33
 423 -123 423 -123 445 -123 c 0,34,35
 463 -123 463 -123 479 -115 c 1,36,-1
 479 -160 l 1,37,38
 458 -169 458 -169 426 -169 c 0,39,0
 384 -169 384 -169 359.5 -148 c 128,-1,1
463 365.5 m 128,-1,41
 445 402 445 402 409 425.5 c 128,-1,42
 373 449 373 449 322 449 c 0,43,44
 255 449 255 449 208.5 411 c 128,-1,45
 162 373 162 373 151 291 c 1,46,-1
 482 291 l 1,47,40
 481 329 481 329 463 365.5 c 128,-1,41
EndSplineSet
EndChar
StartChar: hbar
Encoding: 295 295 148
Width: 632
GlyphClass: 1
Flags: W
LayerCount: 2
Fore
SplineSet
109 559 m 1,0,-1
 45 559 l 1,1,-1
 45 604 l 1,2,-1
 109 604 l 1,3,-1
 109 708 l 1,4,-1
 178 708 l 1,5,-1
 178 604 l 1,6,-1
 342 604 l 1,7,-1
 342 559 l 1,8,-1
 178 559 l 1,9,-1
 178 421 l 1,10,11
 200 455 200 455 243.5 481 c 128,-1,12
 287 507 287 507 347 507 c 0,13,14
 437 507 437 507 481.5 458 c 128,-1,15
 526 409 526 409 526 327 c 2,16,-1
 526 0 l 1,17,-1
 457 0 l 1,18,-1
 457 307 l 2,19,20
 457 373 457 373 427 410.5 c 128,-1,21
 397 448 397 448 332 448 c 0,22,23
 262 448 262 448 220 401 c 128,-1,24
 178 354 178 354 178 270 c 2,25,-1
 178 0 l 1,26,-1
 109 0 l 1,27,-1
 109 559 l 1,0,-1
EndSplineSet
EndChar
StartChar: Iogonek
Encoding: 302 302 47
Width: 632
GlyphClass: 2
Flags: W
AnchorPoint: "Anchor-1" 316 668 basechar 0
LayerCount: 2
Fore
SplineSet
138 53 m 1,0,-1
 280 53 l 1,1,-1
 280 615 l 1,2,-1
 138 615 l 1,3,-1
 138 668 l 1,4,-1
 494 668 l 1,5,-1
 494 615 l 1,6,-1
 352 615 l 1,7,-1
 352 53 l 1,8,-1
 494 53 l 1,9,-1
 494 0 l 1,10,11
 455 -11 455 -11 431 -33.5 c 128,-1,12
 407 -56 407 -56 407 -81 c 0,13,14
 407 -102 407 -102 421 -112.5 c 128,-1,15
 435 -123 435 -123 456 -123 c 0,16,17
 470 -123 470 -123 494 -115 c 1,18,-1
 494 -160 l 1,19,20
 472 -169 472 -169 441 -169 c 0,21,22
 399 -169 399 -169 374.5 -148 c 128,-1,23
 350 -127 350 -127 350 -93 c 0,24,25
 350 -35 350 -35 412 0 c 1,26,-1
 138 0 l 1,27,-1
 138 53 l 1,0,-1
EndSplineSet
EndChar
StartChar: iogonek
Encoding: 303 303 156
Width: 632
GlyphClass: 2
Flags: W
AnchorPoint: "Anchor-1" 314 706 basechar 0
LayerCount: 2
Fore
SplineSet
113 55 m 1,0,-1
 290 55 l 1,1,-1
 290 441 l 1,2,-1
 138 441 l 1,3,-1
 138 496 l 1,4,-1
 360 496 l 1,5,-1
 360 55 l 1,6,-1
 537 55 l 1,7,-1
 537 0 l 1,8,9
 497 -12 497 -12 473.5 -34 c 128,-1,10
 450 -56 450 -56 450 -81 c 0,11,12
 450 -102 450 -102 464.5 -112.5 c 128,-1,13
 479 -123 479 -123 501 -123 c 0,14,15
 519 -123 519 -123 537 -115 c 1,16,-1
 537 -160 l 1,17,18
 516 -169 516 -169 484 -169 c 0,19,20
 442 -169 442 -169 417.5 -148 c 128,-1,21
 393 -127 393 -127 393 -93 c 0,22,23
 393 -63 393 -63 408.5 -41 c 128,-1,24
 424 -19 424 -19 455 0 c 1,25,-1
 113 0 l 1,26,-1
 113 55 l 1,0,-1
276 612 m 128,-1,28
 260 628 260 628 260 650 c 0,29,30
 260 673 260 673 276 689 c 128,-1,31
 292 705 292 705 314 705 c 0,32,33
 337 705 337 705 353 689 c 128,-1,34
 369 673 369 673 369 650 c 0,35,36
 369 628 369 628 352.5 612 c 128,-1,37
 336 596 336 596 314 596 c 256,38,27
 292 596 292 596 276 612 c 128,-1,28
EndSplineSet
EndChar
StartChar: dotlessi
Encoding: 305 305 150
Width: 632
GlyphClass: 2
Flags: W
AnchorPoint: "Anchor-2" 537 10 basechar 0
AnchorPoint: "Anchor-1" 314 496 basechar 0
AnchorPoint: "Anchor-0" 313 0 basechar 0
LayerCount: 2
Fore
SplineSet
113 55 m 1,0,-1
 290 55 l 1,1,-1
 290 441 l 1,2,-1
 138 441 l 1,3,-1
 138 496 l 1,4,-1
 360 496 l 1,5,-1
 360 55 l 1,6,-1
 537 55 l 1,7,-1
 537 0 l 1,8,-1
 113 0 l 1,9,-1
 113 55 l 1,0,-1
EndSplineSet
EndChar
StartChar: ij
Encoding: 307 307 157
Width: 632
GlyphClass: 1
Flags: W
LayerCount: 2
Fore
SplineSet
294 -102 m 1,0,-1
 362 -102 l 2,1,2
 403 -102 403 -102 421 -94.5 c 128,-1,3
 439 -87 439 -87 445 -68 c 128,-1,4
 451 -49 451 -49 451 -7 c 2,5,-1
 451 441 l 1,6,-1
 388 441 l 1,7,-1
 388 496 l 1,8,-1
 520 496 l 1,9,-1
 520 -9 l 2,10,11
 520 -70 520 -70 509 -101.5 c 128,-1,12
 498 -133 498 -133 465.5 -147 c 128,-1,13
 433 -161 433 -161 366 -161 c 2,14,-1
 294 -161 l 1,15,-1
 294 -102 l 1,0,-1
160 441 m 1,16,-1
 98 441 l 1,17,-1
 98 496 l 1,18,-1
 229 496 l 1,19,-1
 229 0 l 1,20,-1
 160 0 l 1,21,-1
 160 441 l 1,16,-1
145.5 612 m 128,-1,23
 129 628 129 628 129 650 c 0,24,25
 129 673 129 673 145.5 689 c 128,-1,26
 162 705 162 705 184 705 c 256,27,28
 206 705 206 705 222 688.5 c 128,-1,29
 238 672 238 672 238 650 c 256,30,31
 238 628 238 628 222 612 c 128,-1,32
 206 596 206 596 184 596 c 256,33,22
 162 596 162 596 145.5 612 c 128,-1,23
436 612 m 128,-1,35
 420 628 420 628 420 650 c 256,36,37
 420 672 420 672 436 688.5 c 128,-1,38
 452 705 452 705 474 705 c 0,39,40
 497 705 497 705 513 689 c 128,-1,41
 529 673 529 673 529 650 c 0,42,43
 529 628 529 628 512.5 612 c 128,-1,44
 496 596 496 596 474 596 c 256,45,34
 452 596 452 596 436 612 c 128,-1,35
EndSplineSet
EndChar
StartChar: lslash
Encoding: 322 322 166
Width: 632
GlyphClass: 1
Flags: W
LayerCount: 2
Fore
SplineSet
274 9.5 m 128,-1,1
 251 19 251 19 241 40.5 c 128,-1,2
 231 62 231 62 231 102 c 2,3,-1
 231 272 l 1,4,-1
 169 231 l 1,5,-1
 169 289 l 1,6,-1
 231 330 l 1,7,-1
 231 653 l 1,8,-1
 116 653 l 1,9,-1
 116 708 l 1,10,-1
 301 708 l 1,11,-1
 301 372 l 1,12,-1
 399 435 l 1,13,-1
 399 377 l 1,14,-1
 301 314 l 1,15,-1
 301 111 l 2,16,17
 301 80 301 80 310.5 69.5 c 128,-1,18
 320 59 320 59 353 59 c 2,19,-1
 536 59 l 1,20,-1
 536 0 l 1,21,-1
 340 0 l 2,22,0
 297 0 297 0 274 9.5 c 128,-1,1
EndSplineSet
EndChar
StartChar: OE
Encoding: 338 338 70
Width: 632
GlyphClass: 2
Flags: W
AnchorPoint: "Anchor-1" 316 668 basechar 0
AnchorPoint: "Anchor-0" 316 0 basechar 0
LayerCount: 2
Fore
SplineSet
59.5 81 m 128,-1,1
 8 174 8 174 8 334 c 256,2,3
 8 494 8 494 59.5 587 c 128,-1,4
 111 680 111 680 205 680 c 0,5,6
 251 680 251 680 287.5 656 c 128,-1,7
 324 632 324 632 348 585 c 1,8,-1
 348 668 l 1,9,-1
 616 668 l 1,10,-1
 616 609 l 1,11,-1
 413 609 l 1,12,-1
 413 373 l 1,13,-1
 565 373 l 1,14,-1
 565 314 l 1,15,-1
 413 314 l 1,16,-1
 413 59 l 1,17,-1
 619 59 l 1,18,-1
 619 0 l 1,19,-1
 348 0 l 1,20,-1
 348 82 l 1,21,22
 324 36 324 36 287.5 12 c 128,-1,23
 251 -12 251 -12 204 -12 c 0,24,0
 111 -12 111 -12 59.5 81 c 128,-1,1
311 118.5 m 128,-1,26
 348 191 348 191 348 334 c 0,27,28
 348 478 348 478 311 550 c 128,-1,29
 274 622 274 622 211 622 c 0,30,31
 149 622 149 622 112.5 550 c 128,-1,32
 76 478 76 478 76 334 c 256,33,34
 76 190 76 190 113 118 c 128,-1,35
 150 46 150 46 211 46 c 0,36,25
 274 46 274 46 311 118.5 c 128,-1,26
EndSplineSet
EndChar
StartChar: oe
Encoding: 339 339 181
Width: 632
GlyphClass: 2
Flags: W
AnchorPoint: "Anchor-1" 302 496 basechar 0
AnchorPoint: "Anchor-0" 302 0 basechar 0
LayerCount: 2
Fore
SplineSet
376.5 18 m 128,-1,1
 339 48 339 48 318 103 c 1,2,3
 296 46 296 46 258.5 17 c 128,-1,4
 221 -12 221 -12 177 -12 c 0,5,6
 132 -12 132 -12 93 16.5 c 128,-1,7
 54 45 54 45 30 103.5 c 128,-1,8
 6 162 6 162 6 248 c 256,9,10
 6 334 6 334 30 392.5 c 128,-1,11
 54 451 54 451 93.5 479 c 128,-1,12
 133 507 133 507 180 507 c 256,13,14
 227 507 227 507 265 477.5 c 128,-1,15
 303 448 303 448 325 389 c 1,16,17
 345 445 345 445 381 476 c 128,-1,18
 417 507 417 507 465 507 c 0,19,20
 522 507 522 507 560 469.5 c 128,-1,21
 598 432 598 432 615 370.5 c 128,-1,22
 632 309 632 309 627 239 c 1,23,-1
 350 239 l 1,24,25
 350 168 350 168 368 123.5 c 128,-1,26
 386 79 386 79 413 60 c 128,-1,27
 440 41 440 41 469 41 c 256,28,29
 498 41 498 41 517.5 55.5 c 128,-1,30
 537 70 537 70 555 103 c 1,31,-1
 607 85 l 1,32,33
 558 -12 558 -12 468 -12 c 0,34,0
 414 -12 414 -12 376.5 18 c 128,-1,1
236 68.5 m 128,-1,36
 262 91 262 91 278 136.5 c 128,-1,37
 294 182 294 182 294 248 c 256,38,39
 294 314 294 314 278 359.5 c 128,-1,40
 262 405 262 405 236 427 c 128,-1,41
 210 449 210 449 179 449 c 256,42,43
 148 449 148 449 122 427 c 128,-1,44
 96 405 96 405 80.5 359.5 c 128,-1,45
 65 314 65 314 65 248 c 256,46,47
 65 182 65 182 80.5 136.5 c 128,-1,48
 96 91 96 91 122 68.5 c 128,-1,49
 148 46 148 46 179 46 c 256,50,35
 210 46 210 46 236 68.5 c 128,-1,36
539 404 m 128,-1,52
 514 453 514 453 463 453 c 0,53,54
 421 453 421 453 390 413 c 128,-1,55
 359 373 359 373 351 288 c 1,56,-1
 565 288 l 1,57,51
 564 355 564 355 539 404 c 128,-1,52
EndSplineSet
EndChar
StartChar: uni0162
Encoding: 354 354 85
Width: 632
GlyphClass: 2
Flags: W
AnchorPoint: "Anchor-1" 316 668 basechar 0
LayerCount: 2
Fore
SplineSet
280 606 m 1,0,-1
 61 606 l 1,1,-1
 61 668 l 1,2,-1
 571 668 l 1,3,-1
 571 606 l 1,4,-1
 352 606 l 1,5,-1
 352 0 l 1,6,-1
 337 0 l 1,7,-1
 306 -48 l 1,8,9
 322 -44 322 -44 337 -44 c 0,10,11
 367 -44 367 -44 385 -60 c 128,-1,12
 403 -76 403 -76 403 -100 c 0,13,14
 403 -129 403 -129 377.5 -153.5 c 128,-1,15
 352 -178 352 -178 309 -178 c 0,16,17
 290 -178 290 -178 267 -172 c 128,-1,18
 244 -166 244 -166 227 -156 c 1,19,-1
 241 -127 l 1,20,21
 274 -144 274 -144 306 -144 c 0,22,23
 330 -144 330 -144 341.5 -132.5 c 128,-1,24
 353 -121 353 -121 353 -108 c 0,25,26
 353 -78 353 -78 312 -78 c 0,27,28
 304 -78 304 -78 290.5 -81 c 128,-1,29
 277 -84 277 -84 273 -84 c 2,30,-1
 271 -84 l 2,31,32
 256 -84 256 -84 256 -70 c 0,33,34
 256 -64 256 -64 261 -56 c 2,35,-1
 296 0 l 1,36,-1
 280 0 l 1,37,-1
 280 606 l 1,0,-1
EndSplineSet
Substitution2: "'locl' Localized Forms in Latin lookup 4 subtable" uni021A
AlternateSubs2: "'aalt' Access All Alternates in Latin lookup 0 subtable" uni021A
EndChar
StartChar: uni0163
Encoding: 355 355 196
Width: 632
GlyphClass: 2
Flags: W
AnchorPoint: "Anchor-3" 332 544 basechar 0
AnchorPoint: "Anchor-1" 285 496 basechar 0
LayerCount: 2
Fore
SplineSet
282 -172 m 128,-1,1
 259 -166 259 -166 242 -156 c 1,2,-1
 256 -127 l 1,3,4
 290 -144 290 -144 321 -144 c 0,5,6
 345 -144 345 -144 356.5 -132.5 c 128,-1,7
 368 -121 368 -121 368 -108 c 0,8,9
 368 -78 368 -78 328 -78 c 0,10,11
 321 -78 321 -78 307 -81 c 128,-1,12
 293 -84 293 -84 288 -84 c 2,13,-1
 287 -84 l 2,14,15
 272 -84 272 -84 272 -70 c 0,16,17
 272 -64 272 -64 277 -56 c 2,18,-1
 312 1 l 1,19,20
 267 6 267 6 250 31.5 c 128,-1,21
 233 57 233 57 233 120 c 2,22,-1
 233 441 l 1,23,-1
 124 441 l 1,24,-1
 124 496 l 1,25,-1
 233 496 l 1,26,-1
 233 620 l 1,27,-1
 302 620 l 1,28,-1
 302 496 l 1,29,-1
 515 496 l 1,30,-1
 515 441 l 1,31,-1
 302 441 l 1,32,-1
 302 126 l 2,33,34
 302 97 302 97 306.5 83 c 128,-1,35
 311 69 311 69 322.5 64 c 128,-1,36
 334 59 334 59 358 59 c 2,37,-1
 465 59 l 1,38,-1
 465 0 l 1,39,-1
 352 0 l 1,40,-1
 321 -48 l 1,41,42
 337 -44 337 -44 352 -44 c 0,43,44
 382 -44 382 -44 400 -60 c 128,-1,45
 418 -76 418 -76 418 -100 c 0,46,47
 418 -129 418 -129 392.5 -153.5 c 128,-1,48
 367 -178 367 -178 324 -178 c 0,49,0
 305 -178 305 -178 282 -172 c 128,-1,1
EndSplineSet
Substitution2: "'locl' Localized Forms in Latin lookup 4 subtable" uni021B
AlternateSubs2: "'aalt' Access All Alternates in Latin lookup 0 subtable" uni021B
EndChar
StartChar: Uring
Encoding: 366 366 95
Width: 632
GlyphClass: 2
Flags: W
AnchorPoint: "Anchor-3" 643 668 basechar 0
AnchorPoint: "Anchor-1" 316 878 basechar 0
LayerCount: 2
Fore
SplineSet
136.5 52 m 128,-1,1
 80 116 80 116 80 247 c 2,2,-1
 80 668 l 1,3,-1
 152 668 l 1,4,-1
 152 240 l 2,5,6
 152 144 152 144 191 96 c 128,-1,7
 230 48 230 48 315 48 c 0,8,9
 401 48 401 48 440.5 96 c 128,-1,10
 480 144 480 144 480 240 c 2,11,-1
 480 668 l 1,12,-1
 552 668 l 1,13,-1
 552 247 l 2,14,15
 552 116 552 116 495 52 c 128,-1,16
 438 -12 438 -12 315 -12 c 0,17,0
 193 -12 193 -12 136.5 52 c 128,-1,1
244 704.5 m 128,-1,19
 213 735 213 735 213 776 c 256,20,21
 213 817 213 817 244 847.5 c 128,-1,22
 275 878 275 878 318 878 c 256,23,24
 361 878 361 878 389 848 c 128,-1,25
 417 818 417 818 417 776 c 256,26,27
 417 734 417 734 389 704 c 128,-1,28
 361 674 361 674 318 674 c 256,29,18
 275 674 275 674 244 704.5 c 128,-1,19
354.5 739 m 128,-1,31
 370 754 370 754 370 776 c 256,32,33
 370 798 370 798 354.5 813 c 128,-1,34
 339 828 339 828 316 828 c 256,35,36
 293 828 293 828 277.5 813 c 128,-1,37
 262 798 262 798 262 776 c 256,38,39
 262 754 262 754 277.5 739 c 128,-1,40
 293 724 293 724 316 724 c 256,41,30
 339 724 339 724 354.5 739 c 128,-1,31
EndSplineSet
EndChar
StartChar: Uogonek
Encoding: 370 370 94
Width: 632
GlyphClass: 2
Flags: W
AnchorPoint: "Anchor-3" 643 668 basechar 0
AnchorPoint: "Anchor-1" 316 668 basechar 0
LayerCount: 2
Fore
SplineSet
360 -148 m 128,-1,1
 335 -127 335 -127 335 -92 c 0,2,3
 335 -47 335 -47 372 -7 c 1,4,5
 332 -11 332 -11 309 -11 c 0,6,7
 208 -11 208 -11 144 44 c 128,-1,8
 80 99 80 99 80 244 c 2,9,-1
 80 668 l 1,10,-1
 152 668 l 1,11,-1
 152 240 l 2,12,13
 152 144 152 144 191 96 c 128,-1,14
 230 48 230 48 315 48 c 0,15,16
 401 48 401 48 440.5 96 c 128,-1,17
 480 144 480 144 480 240 c 2,18,-1
 480 668 l 1,19,-1
 552 668 l 1,20,-1
 552 247 l 2,21,22
 552 160 552 160 527 102.5 c 128,-1,23
 502 45 502 45 449 15 c 0,24,25
 422 -1 422 -1 407.5 -24.5 c 128,-1,26
 393 -48 393 -48 393 -75 c 0,27,28
 393 -98 393 -98 408.5 -110.5 c 128,-1,29
 424 -123 424 -123 446 -123 c 0,30,31
 463 -123 463 -123 479 -115 c 1,32,-1
 479 -160 l 1,33,34
 458 -169 458 -169 427 -169 c 0,35,0
 385 -169 385 -169 360 -148 c 128,-1,1
EndSplineSet
EndChar
StartChar: florin
Encoding: 402 402 286
Width: 632
GlyphClass: 1
Flags: W
LayerCount: 2
Fore
SplineSet
91 -162 m 1,1,-1
 91 -101 l 1,2,3
 101 -106 101 -106 120 -110 c 128,-1,4
 139 -114 139 -114 161 -114 c 0,5,6
 278 -114 278 -114 278 37 c 2,7,-1
 278 444 l 1,8,-1
 96 444 l 1,9,-1
 96 496 l 1,10,-1
 278 496 l 1,11,-1
 278 568 l 2,12,13
 278 621 278 621 285.5 647.5 c 128,-1,14
 293 674 293 674 317 686.5 c 128,-1,15
 341 699 341 699 393 699 c 2,16,-1
 540 699 l 1,17,-1
 540 643 l 1,18,-1
 388 643 l 2,19,20
 359 643 359 643 350 629 c 128,-1,21
 341 615 341 615 341 573 c 2,22,-1
 341 496 l 1,23,-1
 540 496 l 1,24,-1
 540 444 l 1,25,-1
 341 444 l 1,26,-1
 341 48 l 2,27,28
 341 -79 341 -79 291 -125.5 c 128,-1,29
 241 -172 241 -172 159 -172 c 0,30,0
 123 -172 123 -172 91 -162 c 1,1,-1
EndSplineSet
EndChar
StartChar: acutecomb
Encoding: 769 769 342
Width: 0
GlyphClass: 4
Flags: W
AnchorPoint: "Anchor-5" 266 701 basemark 0
AnchorPoint: "Anchor-5" 266 496 mark 0
AnchorPoint: "Anchor-1" 266 496 mark 0
LayerCount: 2
Fore
SplineSet
340 693.5 m 128,-1,1
 349 701 349 701 361 701 c 0,2,3
 374 701 374 701 382.5 692 c 128,-1,4
 391 683 391 683 391 671 c 0,5,6
 391 658 391 658 384 648.5 c 128,-1,7
 377 639 377 639 355 619 c 2,8,-1
 298 570 l 1,9,-1
 242 570 l 1,10,-1
 318 669 l 2,11,0
 331 686 331 686 340 693.5 c 128,-1,1
EndSplineSet
Substitution2: "Single Substitution lookup 12 subtable" acutecomb.case
Substitution2: "'case' Case-Sensitive Forms in Latin lookup 9 subtable" acutecomb.case
AlternateSubs2: "'aalt' Access All Alternates in Latin lookup 0 subtable" acutecomb.case
EndChar
StartChar: uni0302
Encoding: 770 770 347
Width: 0
GlyphClass: 4
Flags: W
AnchorPoint: "Anchor-5" 316 686 basemark 0
AnchorPoint: "Anchor-5" 316 496 mark 0
AnchorPoint: "Anchor-1" 316 496 mark 0
LayerCount: 2
Fore
SplineSet
317 686 m 0,1,2
 340 686 340 686 361 665 c 2,3,-1
 451 576 l 1,4,-1
 385 576 l 1,5,-1
 315 636 l 1,6,-1
 247 576 l 1,7,-1
 181 576 l 1,8,-1
 271 665 l 2,9,0
 292 686 292 686 317 686 c 0,1,2
EndSplineSet
Substitution2: "Single Substitution lookup 12 subtable" uni0302.case
Substitution2: "'case' Case-Sensitive Forms in Latin lookup 9 subtable" uni0302.case
AlternateSubs2: "'aalt' Access All Alternates in Latin lookup 0 subtable" uni0302.case
EndChar
StartChar: tildecomb
Encoding: 771 771 355
Width: 0
GlyphClass: 4
Flags: W
AnchorPoint: "Anchor-5" 316 664 basemark 0
AnchorPoint: "Anchor-5" 316 496 mark 0
AnchorPoint: "Anchor-1" 316 496 mark 0
LayerCount: 2
Fore
SplineSet
345.5 581 m 128,-1,1
 330 587 330 587 310 598 c 0,2,3
 278 615 278 615 261 615 c 256,4,5
 244 615 244 615 232 604.5 c 128,-1,6
 220 594 220 594 217 576 c 1,7,-1
 170 576 l 1,8,9
 178 620 178 620 202.5 641 c 128,-1,10
 227 662 227 662 262 662 c 0,11,12
 280 662 280 662 294 656.5 c 128,-1,13
 308 651 308 651 327 640 c 0,14,15
 343 631 343 631 354 626.5 c 128,-1,16
 365 622 365 622 377 622 c 0,17,18
 391 622 391 622 400 628.5 c 128,-1,19
 409 635 409 635 418 648 c 0,20,21
 428 664 428 664 442 664 c 0,22,23
 450 664 450 664 456 658.5 c 128,-1,24
 462 653 462 653 462 642 c 256,25,26
 462 631 462 631 452 615 c 128,-1,27
 442 599 442 599 423 587 c 128,-1,28
 404 575 404 575 380 575 c 0,29,0
 361 575 361 575 345.5 581 c 128,-1,1
EndSplineSet
Substitution2: "Single Substitution lookup 12 subtable" tildecomb.case
Substitution2: "'case' Case-Sensitive Forms in Latin lookup 9 subtable" tildecomb.case
AlternateSubs2: "'aalt' Access All Alternates in Latin lookup 0 subtable" tildecomb.case
EndChar
StartChar: uni0308
Encoding: 776 776 335
Width: 0
GlyphClass: 4
Flags: W
AnchorPoint: "Anchor-5" 316 692 basemark 0
AnchorPoint: "Anchor-5" 316 496 mark 0
AnchorPoint: "Anchor-1" 316 496 mark 0
LayerCount: 2
Fore
SplineSet
365.5 609.5 m 128,-1,1
 351 624 351 624 351 644 c 256,2,3
 351 664 351 664 365.5 678 c 128,-1,4
 380 692 380 692 400 692 c 256,5,6
 420 692 420 692 434 678 c 128,-1,7
 448 664 448 664 448 644 c 256,8,9
 448 624 448 624 434 609.5 c 128,-1,10
 420 595 420 595 400 595 c 256,11,0
 380 595 380 595 365.5 609.5 c 128,-1,1
198 609.5 m 128,-1,13
 184 624 184 624 184 644 c 256,14,15
 184 664 184 664 198.5 678 c 128,-1,16
 213 692 213 692 232 692 c 0,17,18
 252 692 252 692 266.5 678 c 128,-1,19
 281 664 281 664 281 644 c 256,20,21
 281 624 281 624 266.5 609.5 c 128,-1,22
 252 595 252 595 232 595 c 256,23,12
 212 595 212 595 198 609.5 c 128,-1,13
EndSplineSet
Substitution2: "Single Substitution lookup 12 subtable" uni0308.case
Substitution2: "'case' Case-Sensitive Forms in Latin lookup 9 subtable" uni0308.case
AlternateSubs2: "'aalt' Access All Alternates in Latin lookup 0 subtable" uni0308.case
EndChar
StartChar: uni030A
Encoding: 778 778 353
Width: 0
GlyphClass: 4
Flags: W
AnchorPoint: "Anchor-5" 316 768 basemark 0
AnchorPoint: "Anchor-5" 316 496 mark 0
AnchorPoint: "Anchor-1" 316 496 mark 0
LayerCount: 2
Fore
SplineSet
245.5 597.5 m 128,-1,1
 216 627 216 627 216 668 c 256,2,3
 216 709 216 709 245.5 738.5 c 128,-1,4
 275 768 275 768 316 768 c 0,5,6
 358 768 358 768 387 738.5 c 128,-1,7
 416 709 416 709 416 668 c 256,8,9
 416 627 416 627 387 597.5 c 128,-1,10
 358 568 358 568 316 568 c 0,11,0
 275 568 275 568 245.5 597.5 c 128,-1,1
354.5 630 m 128,-1,13
 370 646 370 646 370 668 c 0,14,15
 370 691 370 691 354.5 706.5 c 128,-1,16
 339 722 339 722 316 722 c 0,17,18
 294 722 294 722 278 706 c 128,-1,19
 262 690 262 690 262 668 c 256,20,21
 262 646 262 646 278 630 c 128,-1,22
 294 614 294 614 316 614 c 0,23,12
 339 614 339 614 354.5 630 c 128,-1,13
EndSplineSet
Substitution2: "Single Substitution lookup 12 subtable" uni030A.case
Substitution2: "'case' Case-Sensitive Forms in Latin lookup 9 subtable" uni030A.case
AlternateSubs2: "'aalt' Access All Alternates in Latin lookup 0 subtable" uni030A.case
EndChar
StartChar: uni0326
Encoding: 806 806 359
Width: 0
GlyphClass: 4
Flags: W
AnchorPoint: "Anchor-4" 320 -237 basemark 0
AnchorPoint: "Anchor-4" 328 0 mark 0
AnchorPoint: "Anchor-0" 328 0 mark 0
LayerCount: 2
Fore
SplineSet
305 -187 m 128,-1,1
 330 -170 330 -170 330 -136 c 0,2,3
 330 -117 330 -117 319.5 -100 c 128,-1,4
 309 -83 309 -83 288 -72 c 1,5,-1
 340 -51 l 1,6,7
 364 -68 364 -68 375 -86.5 c 128,-1,8
 386 -105 386 -105 386 -129 c 0,9,10
 386 -174 386 -174 354 -203.5 c 128,-1,11
 322 -233 322 -233 279 -235 c 1,12,-1
 246 -207 l 1,13,0
 280 -204 280 -204 305 -187 c 128,-1,1
EndSplineSet
EndChar
StartChar: uni0327
Encoding: 807 807 360
Width: 0
GlyphClass: 4
Flags: W
AnchorPoint: "Anchor-4" 320 -179 basemark 0
AnchorPoint: "Anchor-4" 320 0 mark 0
AnchorPoint: "Anchor-0" 320 0 mark 0
LayerCount: 2
Fore
SplineSet
268 -172 m 128,-1,1
 245 -166 245 -166 228 -156 c 1,2,-1
 243 -127 l 1,3,4
 276 -144 276 -144 307 -144 c 0,5,6
 331 -144 331 -144 343 -132.5 c 128,-1,7
 355 -121 355 -121 355 -108 c 0,8,9
 355 -78 355 -78 314 -78 c 0,10,11
 307 -78 307 -78 293 -81 c 128,-1,12
 279 -84 279 -84 274 -84 c 2,13,-1
 273 -84 l 2,14,15
 258 -84 258 -84 258 -70 c 0,16,17
 258 -64 258 -64 263 -56 c 2,18,-1
 310 21 l 1,19,-1
 342 5 l 1,20,-1
 307 -48 l 1,21,22
 324 -44 324 -44 339 -44 c 0,23,24
 368 -44 368 -44 386.5 -60 c 128,-1,25
 405 -76 405 -76 405 -100 c 0,26,27
 405 -129 405 -129 379.5 -153.5 c 128,-1,28
 354 -178 354 -178 310 -178 c 0,29,0
 291 -178 291 -178 268 -172 c 128,-1,1
EndSplineSet
EndChar
StartChar: uni0328
Encoding: 808 808 361
Width: 0
GlyphClass: 4
Flags: W
AnchorPoint: "Anchor-2" 388 10 mark 0
LayerCount: 2
Fore
SplineSet
268.5 -148 m 128,-1,1
 244 -127 244 -127 244 -93 c 0,2,3
 244 -57 244 -57 268 -30.5 c 128,-1,4
 292 -4 292 -4 339 17 c 1,5,-1
 388 0 l 1,6,7
 348 -12 348 -12 324.5 -34 c 128,-1,8
 301 -56 301 -56 301 -81 c 0,9,10
 301 -102 301 -102 315.5 -112.5 c 128,-1,11
 330 -123 330 -123 352 -123 c 0,12,13
 370 -123 370 -123 388 -115 c 1,14,-1
 388 -160 l 1,15,16
 367 -169 367 -169 335 -169 c 0,17,0
 293 -169 293 -169 268.5 -148 c 128,-1,1
EndSplineSet
Substitution2: "Single Substitution lookup 12 subtable" uni0328.case
Substitution2: "'case' Case-Sensitive Forms in Latin lookup 9 subtable" uni0328.case
AlternateSubs2: "'aalt' Access All Alternates in Latin lookup 0 subtable" uni0328.case
EndChar
StartChar: uni03BC
Encoding: 956 956 227
Width: 632
GlyphClass: 1
Flags: W
LayerCount: 2
Fore
SplineSet
118 496 m 1,0,-1
 187 496 l 1,1,-1
 187 194 l 2,2,3
 187 123 187 123 212.5 85 c 128,-1,4
 238 47 238 47 300 47 c 0,5,6
 363 47 363 47 401 92.5 c 128,-1,7
 439 138 439 138 439 222 c 2,8,-1
 439 496 l 1,9,-1
 508 496 l 1,10,-1
 508 110 l 2,11,12
 508 79 508 79 516.5 68.5 c 128,-1,13
 525 58 525 58 553 58 c 2,14,-1
 565 58 l 1,15,-1
 565 0 l 1,16,-1
 541 0 l 2,17,18
 489 0 489 0 467.5 18 c 128,-1,19
 446 36 446 36 441 74 c 1,20,21
 421 37 421 37 385 12.5 c 128,-1,22
 349 -12 349 -12 296 -12 c 0,23,24
 258 -12 258 -12 227.5 0.5 c 128,-1,25
 197 13 197 13 187 33 c 1,26,-1
 187 -162 l 1,27,-1
 118 -162 l 1,28,-1
 118 496 l 1,0,-1
EndSplineSet
EndChar
StartChar: uni1E9E
Encoding: 7838 7838 82
Width: 632
GlyphClass: 1
Flags: W
LayerCount: 2
Fore
SplineSet
310 19.5 m 128,-1,1
 270 51 270 51 254 102 c 1,2,-1
 314 124 l 1,3,4
 334 49 334 49 419 49 c 0,5,6
 467 49 467 49 498 82 c 128,-1,7
 529 115 529 115 529 174 c 256,8,9
 529 233 529 233 496.5 264.5 c 128,-1,10
 464 296 464 296 418 296 c 0,11,12
 391 296 391 296 371 287 c 1,13,-1
 337 344 l 1,14,-1
 514 599 l 1,15,16
 415 621 415 621 340 621 c 0,17,18
 243 621 243 621 195 581 c 128,-1,19
 147 541 147 541 147 442 c 2,20,-1
 147 0 l 1,21,-1
 75 0 l 1,22,-1
 75 447 l 2,23,24
 75 571 75 571 143 625.5 c 128,-1,25
 211 680 211 680 335 680 c 0,26,27
 431 680 431 680 577 647 c 1,28,-1
 577 584 l 1,29,-1
 414 350 l 1,30,31
 420 351 420 351 432 351 c 0,32,33
 478 351 478 351 516 328.5 c 128,-1,34
 554 306 554 306 576 265.5 c 128,-1,35
 598 225 598 225 598 172 c 0,36,37
 598 114 598 114 573 72.5 c 128,-1,38
 548 31 548 31 507.5 9.5 c 128,-1,39
 467 -12 467 -12 420 -12 c 0,40,0
 350 -12 350 -12 310 19.5 c 128,-1,1
EndSplineSet
EndChar
StartChar: quoteright
Encoding: 8217 8217 279
Width: 632
GlyphClass: 1
Flags: W
LayerCount: 2
Fore
SplineSet
271.5 579 m 128,-1,1
 256 596 256 596 256 619 c 0,2,3
 256 645 256 645 274 662.5 c 128,-1,4
 292 680 292 680 317 680 c 256,5,6
 342 680 342 680 359.5 662.5 c 128,-1,7
 377 645 377 645 377 619 c 0,8,9
 377 605 377 605 370 589 c 2,10,-1
 309 430 l 1,11,-1
 259 430 l 1,12,-1
 310 559 l 1,13,0
 287 562 287 562 271.5 579 c 128,-1,1
EndSplineSet
EndChar
StartChar: dagger
Encoding: 8224 8224 298
Width: 632
GlyphClass: 1
Flags: W
LayerCount: 2
Fore
SplineSet
283 435 m 1,0,-1
 95 435 l 1,1,-1
 95 496 l 1,2,-1
 283 496 l 1,3,-1
 283 668 l 1,4,-1
 350 668 l 1,5,-1
 350 496 l 1,6,-1
 537 496 l 1,7,-1
 537 435 l 1,8,-1
 350 435 l 1,9,-1
 350 0 l 1,10,-1
 283 0 l 1,11,-1
 283 435 l 1,0,-1
EndSplineSet
EndChar
StartChar: perthousand
Encoding: 8240 8240 333
Width: 632
GlyphClass: 1
Flags: W
LayerCount: 2
Fore
SplineSet
99 430 m 128,-1,1
 68 448 68 448 49.5 479 c 128,-1,2
 31 510 31 510 31 547 c 256,3,4
 31 584 31 584 49.5 615 c 128,-1,5
 68 646 68 646 99 664 c 128,-1,6
 130 682 130 682 166 682 c 0,7,8
 203 682 203 682 234 664 c 128,-1,9
 265 646 265 646 283.5 615 c 128,-1,10
 302 584 302 584 302 547 c 256,11,12
 302 510 302 510 283.5 479 c 128,-1,13
 265 448 265 448 234 430 c 128,-1,14
 203 412 203 412 166 412 c 0,15,0
 130 412 130 412 99 430 c 128,-1,1
227.5 487 m 128,-1,17
 252 512 252 512 252 547 c 0,18,19
 252 583 252 583 227 608 c 128,-1,20
 202 633 202 633 166 633 c 256,21,22
 130 633 130 633 105 607.5 c 128,-1,23
 80 582 80 582 80 547 c 256,24,25
 80 512 80 512 105 487 c 128,-1,26
 130 462 130 462 166 462 c 0,27,16
 203 462 203 462 227.5 487 c 128,-1,17
99 4 m 128,-1,29
 68 22 68 22 49.5 53 c 128,-1,30
 31 84 31 84 31 121 c 256,31,32
 31 158 31 158 49.5 189 c 128,-1,33
 68 220 68 220 99 238 c 128,-1,34
 130 256 130 256 166 256 c 0,35,36
 203 256 203 256 234 238 c 128,-1,37
 265 220 265 220 283.5 189 c 128,-1,38
 302 158 302 158 302 121 c 256,39,40
 302 84 302 84 283.5 53 c 128,-1,41
 265 22 265 22 234 4 c 128,-1,42
 203 -14 203 -14 166 -14 c 0,43,28
 130 -14 130 -14 99 4 c 128,-1,29
227.5 61 m 128,-1,45
 252 86 252 86 252 121 c 0,46,47
 252 157 252 157 227 182 c 128,-1,48
 202 207 202 207 166 207 c 256,49,50
 130 207 130 207 105 181.5 c 128,-1,51
 80 156 80 156 80 121 c 256,52,53
 80 86 80 86 105 61 c 128,-1,54
 130 36 130 36 166 36 c 0,55,44
 203 36 203 36 227.5 61 c 128,-1,45
400 4 m 128,-1,57
 369 22 369 22 350.5 53 c 128,-1,58
 332 84 332 84 332 121 c 256,59,60
 332 158 332 158 350.5 189 c 128,-1,61
 369 220 369 220 400 238 c 128,-1,62
 431 256 431 256 467 256 c 0,63,64
 504 256 504 256 535 238 c 128,-1,65
 566 220 566 220 584.5 189 c 128,-1,66
 603 158 603 158 603 121 c 256,67,68
 603 84 603 84 584.5 53 c 128,-1,69
 566 22 566 22 535 4 c 128,-1,70
 504 -14 504 -14 467 -14 c 0,71,56
 431 -14 431 -14 400 4 c 128,-1,57
528.5 61 m 128,-1,73
 553 86 553 86 553 121 c 0,74,75
 553 157 553 157 528 182 c 128,-1,76
 503 207 503 207 467 207 c 256,77,78
 431 207 431 207 406 181.5 c 128,-1,79
 381 156 381 156 381 121 c 256,80,81
 381 86 381 86 406 61 c 128,-1,82
 431 36 431 36 467 36 c 0,83,72
 504 36 504 36 528.5 61 c 128,-1,73
36 316 m 1,84,-1
 598 518 l 1,85,-1
 598 462 l 1,86,-1
 36 261 l 1,87,-1
 36 316 l 1,84,-1
EndSplineSet
EndChar
StartChar: uni20B9
Encoding: 8377 8377 306
Width: 632
GlyphClass: 1
Flags: W
LayerCount: 2
Fore
SplineSet
101 291 m 1,0,-1
 101 339 l 1,1,-1
 200 339 l 2,2,3
 288 339 288 339 335.5 365.5 c 128,-1,4
 383 392 383 392 390 450 c 1,5,-1
 101 450 l 1,6,-1
 101 495 l 1,7,-1
 390 495 l 1,8,9
 383 551 383 551 334.5 579.5 c 128,-1,10
 286 608 286 608 200 608 c 2,11,-1
 101 608 l 1,12,-1
 101 668 l 1,13,-1
 548 668 l 1,14,-1
 548 624 l 1,15,-1
 376 624 l 1,16,17
 454 581 454 581 463 495 c 1,18,-1
 548 495 l 1,19,-1
 548 450 l 1,20,-1
 463 450 l 1,21,22
 456 367 456 367 389.5 325 c 128,-1,23
 323 283 323 283 210 281 c 2,24,-1
 202 281 l 1,25,-1
 487 0 l 1,26,-1
 394 0 l 1,27,-1
 101 291 l 1,0,-1
EndSplineSet
EndChar
StartChar: estimated
Encoding: 8494 8494 301
Width: 632
GlyphClass: 1
Flags: W
LayerCount: 2
Fore
SplineSet
194.5 18 m 128,-1,1
 135 48 135 48 96.5 109 c 128,-1,2
 58 170 58 170 58 258 c 0,3,4
 58 315 58 315 90.5 372 c 128,-1,5
 123 429 123 429 181.5 465.5 c 128,-1,6
 240 502 240 502 315 502 c 0,7,8
 385 502 385 502 444 467.5 c 128,-1,9
 503 433 503 433 538 374.5 c 128,-1,10
 573 316 573 316 573 247 c 1,11,-1
 156 247 l 1,12,-1
 156 70 l 1,13,14
 188 41 188 41 228.5 25 c 128,-1,15
 269 9 269 9 315 9 c 0,16,17
 368 9 368 9 413.5 30 c 128,-1,18
 459 51 459 51 492 88 c 1,19,-1
 515 83 l 1,20,21
 479 39 479 39 427 13.5 c 128,-1,22
 375 -12 375 -12 315 -12 c 0,23,0
 254 -12 254 -12 194.5 18 c 128,-1,1
476 268 m 1,24,-1
 476 419 l 1,25,26
 444 449 444 449 402.5 465.5 c 128,-1,27
 361 482 361 482 315 482 c 0,28,29
 270 482 270 482 229 465.5 c 128,-1,30
 188 449 188 449 156 419 c 1,31,-1
 156 268 l 1,32,-1
 476 268 l 1,24,-1
EndSplineSet
EndChar
StartChar: minus
Encoding: 8722 8722 312
Width: 632
GlyphClass: 1
Flags: W
LayerCount: 2
Fore
SplineSet
67 281 m 1,0,-1
 565 281 l 1,1,-1
 565 219 l 1,2,-1
 67 219 l 1,3,-1
 67 281 l 1,0,-1
EndSplineSet
EndChar
StartChar: uni2215
Encoding: 8725 8725 310
Width: 632
GlyphClass: 1
Flags: W
LayerCount: 2
Fore
SplineSet
504 668 m 1,0,-1
 588 668 l 1,1,-1
 128 0 l 1,2,-1
 44 0 l 1,3,-1
 504 668 l 1,0,-1
EndSplineSet
EndChar
StartChar: lozenge
Encoding: 9674 9674 334
Width: 632
GlyphClass: 1
Flags: W
LayerCount: 2
Fore
SplineSet
99 316 m 1,0,-1
 317 699 l 1,1,-1
 533 316 l 1,2,-1
 317 -67 l 1,3,-1
 99 316 l 1,0,-1
461 316 m 1,4,-1
 317 570 l 1,5,-1
 171 316 l 1,6,-1
 317 62 l 1,7,-1
 461 316 l 1,4,-1
EndSplineSet
EndChar
StartChar: acutecomb.case
Encoding: 65544 -1 343
Width: 0
GlyphClass: 4
Flags: W
AnchorPoint: "Anchor-5" 263 858 basemark 0
AnchorPoint: "Anchor-5" 263 668 mark 0
AnchorPoint: "Anchor-1" 263 668 mark 0
LayerCount: 2
Fore
SplineSet
346.5 839.5 m 128,-1,1
 356 845 356 845 366 845 c 0,2,3
 379 845 379 845 387.5 837.5 c 128,-1,4
 396 830 396 830 396 817 c 256,5,6
 396 804 396 804 388 796 c 128,-1,7
 380 788 380 788 354 773 c 2,8,-1
 296 738 l 1,9,-1
 236 738 l 1,10,-1
 322 820 l 2,11,0
 337 834 337 834 346.5 839.5 c 128,-1,1
EndSplineSet
EndChar
StartChar: gravecomb.case
Encoding: 65543 -1 341
Width: 0
GlyphClass: 4
Flags: W
AnchorPoint: "Anchor-5" 369 858 basemark 0
AnchorPoint: "Anchor-5" 369 668 mark 0
AnchorPoint: "Anchor-1" 369 668 mark 0
LayerCount: 2
Fore
SplineSet
244 796 m 128,-1,1
 236 804 236 804 236 817 c 256,2,3
 236 830 236 830 244.5 837.5 c 128,-1,4
 253 845 253 845 266 845 c 0,5,6
 276 845 276 845 285.5 839.5 c 128,-1,7
 295 834 295 834 310 820 c 2,8,-1
 396 738 l 1,9,-1
 336 738 l 1,10,-1
 278 773 l 2,11,0
 252 788 252 788 244 796 c 128,-1,1
EndSplineSet
EndChar
StartChar: uni0307.large
Encoding: 65542 -1 339
Width: 0
GlyphClass: 4
Flags: W
AnchorPoint: "Anchor-5" 316 706 basemark 0
AnchorPoint: "Anchor-5" 316 496 mark 0
AnchorPoint: "Anchor-1" 316 496 mark 0
LayerCount: 2
Fore
SplineSet
278 612 m 128,-1,1
 262 628 262 628 262 650 c 0,2,3
 262 673 262 673 278 689 c 128,-1,4
 294 705 294 705 316 705 c 256,5,6
 338 705 338 705 354 689 c 128,-1,7
 370 673 370 673 370 650 c 0,8,9
 370 628 370 628 354 612 c 128,-1,10
 338 596 338 596 316 596 c 256,11,0
 294 596 294 596 278 612 c 128,-1,1
EndSplineSet
EndChar
StartChar: uni0328.alt
Encoding: 65553 -1 362
Width: 0
GlyphClass: 4
Flags: W
AnchorPoint: "Anchor-2" 388 10 mark 0
LayerCount: 2
Fore
SplineSet
268.5 -148 m 128,-1,1
 244 -127 244 -127 244 -92 c 0,2,3
 244 -54 244 -54 270 -21 c 128,-1,4
 296 12 296 12 336 28 c 1,5,-1
 372 25 l 1,6,7
 339 6 339 6 320 -20 c 128,-1,8
 301 -46 301 -46 301 -75 c 0,9,10
 301 -98 301 -98 317 -110.5 c 128,-1,11
 333 -123 333 -123 354 -123 c 0,12,13
 372 -123 372 -123 388 -115 c 1,14,-1
 388 -160 l 1,15,16
 367 -169 367 -169 335 -169 c 0,17,0
 293 -169 293 -169 268.5 -148 c 128,-1,1
EndSplineSet
EndChar
